<svg width="146" height="28" viewBox="0 0 146 28" fill="none" xmlns="http://www.w3.org/2000/svg">
<path d="M12.5469 0C13.7921 0 14.9414 0.0999293 15.995 0.39576C17.0485 0.59364 17.9105 0.989399 18.6768 1.4841C19.443 1.9788 20.0176 2.67138 20.4008 3.56283C20.7839 4.4523 20.9754 5.54163 20.9754 6.7289C20.9754 8.11307 20.6881 9.30134 20.0176 10.1918C19.443 11.0813 18.4852 11.8728 17.3359 12.4664C18.9641 12.9611 20.2092 13.8506 20.9754 15.0389C21.7417 16.2261 22.2205 17.7102 22.2205 19.3922C22.2205 20.7764 21.9332 21.9647 21.4543 22.9541C20.9754 23.9435 20.2092 24.8339 19.3472 25.4276C18.4852 26.0222 17.4316 26.5169 16.2823 26.8127C15.133 27.1086 13.9836 27.3074 12.8343 27.3074H0V0H12.5469ZM11.7807 11.0813C12.8343 11.0813 13.6963 10.7845 14.3667 10.2898C15.0372 9.79505 15.3245 8.90459 15.3245 7.81625C15.3245 7.22262 15.2287 6.62898 15.0372 6.23322C14.8456 5.83746 14.5583 5.54064 14.1752 5.24382C13.7921 5.04594 13.409 4.84806 12.9301 4.74912C12.4512 4.65018 11.9723 4.65018 11.3976 4.65018H5.84247V11.0813H11.7807V11.0813ZM12.0681 22.7562C12.6427 22.7562 13.2174 22.6572 13.6963 22.5593C14.1752 22.4594 14.6541 22.2615 15.0372 21.9647C15.4203 21.6678 15.7076 21.371 15.995 20.8763C16.1865 20.3816 16.3781 19.787 16.3781 19.0954C16.3781 17.7102 15.995 16.7208 15.2287 16.0273C14.4625 15.4336 13.4089 15.1378 12.1638 15.1378H5.84247V22.7562H12.0681ZM30.5533 22.6572C31.3195 23.4488 32.4688 23.8445 34.0013 23.8445C35.0548 23.8445 36.0126 23.5477 36.7788 23.053C37.5451 22.4584 38.024 21.8657 38.2155 21.2711H42.9086C42.1424 23.6457 40.9931 25.3286 39.4606 26.416C37.9282 27.4054 36.1084 28 33.9055 28C32.373 28 31.0321 27.7022 29.787 27.2075C28.5419 26.7128 27.5841 26.0212 26.7221 25.0318C25.8601 24.1413 25.1897 23.053 24.8066 21.7658C24.3277 20.4796 24.1361 19.0954 24.1361 17.5114C24.1361 16.0273 24.3277 14.6431 24.8066 13.3559C25.2854 12.0697 25.9559 10.9823 26.8179 9.99293C27.6799 9.10247 28.7335 8.31095 29.8828 7.81625C31.1279 7.32156 32.373 7.02474 33.9055 7.02474C35.5337 7.02474 36.9704 7.32156 38.2155 8.01413C39.4606 8.70671 40.4184 9.49823 41.1846 10.6855C41.9509 11.7739 42.5255 13.0591 42.9086 14.4452C43.1002 15.8304 43.196 17.2155 43.1002 18.7986H29.2124C29.2124 20.3816 29.787 21.8657 30.5533 22.6572V22.6572ZM36.5873 12.2686C35.9168 11.576 34.8633 11.1802 33.6182 11.1802C32.7561 11.1802 32.0857 11.3771 31.511 11.6749C30.9364 11.9717 30.5533 12.3665 30.1701 12.7633C29.787 13.16 29.5955 13.6537 29.4997 14.1484C29.4039 14.6431 29.3081 15.0379 29.3081 15.4346H37.9282C37.7366 13.9505 37.2577 12.9611 36.5873 12.2686ZM50.5709 0V10.2898H50.6667C51.3371 9.10247 52.1991 8.31095 53.2527 7.81625C54.3062 7.32156 55.264 7.02474 56.3176 7.02474C57.7543 7.02474 58.9036 7.22261 59.7656 7.61837C60.6276 8.01413 61.3938 8.60777 61.8727 9.30035C62.3516 9.99293 62.7347 10.8834 62.9263 11.8728C63.1178 12.8622 63.2136 13.9515 63.2136 15.2367V27.4064H57.9458V16.2261C57.9458 14.5442 57.6585 13.3569 57.1796 12.5654C56.7007 11.7739 55.8387 11.3781 54.5936 11.3781C53.1569 11.3781 52.1033 11.8728 51.5287 12.6653C50.8582 13.5548 50.5709 15.0389 50.5709 17.0177V27.4064H45.3031V0H50.5709ZM67.0448 10.4876C67.6194 9.59717 68.2899 9.00353 69.1519 8.4089C70.0139 7.9142 70.9717 7.51943 72.0252 7.32057C73.0788 7.12269 74.1314 7.02375 75.1859 7.02375C76.1437 7.02375 77.1015 7.12269 78.156 7.22163C79.1138 7.32057 80.0715 7.6164 80.8368 8.01315C81.6988 8.40792 82.2735 9.00254 82.8491 9.69512C83.327 10.3887 83.6144 11.3781 83.6144 12.5654V22.9541C83.6144 23.8445 83.7102 24.735 83.8059 25.5275C83.9027 26.319 84.1881 27.0116 84.4764 27.4064H79.1128C78.9203 27.2085 78.8245 26.8127 78.7297 26.5169C78.6339 26.2191 78.6339 25.8243 78.6339 25.5275C77.7719 26.417 76.8141 27.0116 75.6648 27.4064C74.5155 27.8021 73.3661 27.9011 72.2168 27.9011C71.259 27.9011 70.4928 27.8021 69.6308 27.5063C68.8645 27.3084 68.1941 26.9117 67.5236 26.417C66.949 25.9223 66.4701 25.3286 66.087 24.5381C65.7996 23.7456 65.6081 22.9541 65.6081 21.8657C65.6081 20.7764 65.7996 19.787 66.1827 19.0954C66.5659 18.4028 67.0447 17.8092 67.6194 17.3145C68.1941 16.9197 68.9603 16.523 69.7265 16.3251C70.4928 16.1282 71.259 15.9303 72.121 15.8304L74.4197 15.5336C75.1859 15.4346 75.8563 15.3357 76.431 15.2367C77.0057 15.0389 77.4846 14.841 77.8677 14.5442C78.2508 14.2473 78.3466 13.8516 78.3466 13.258C78.3466 12.6643 78.2508 12.1696 78.0592 11.8728C77.8677 11.576 77.5804 11.2792 77.293 11.0813C77.0047 10.8834 76.6226 10.7845 76.2395 10.6865C75.8563 10.5866 75.3775 10.5866 74.8986 10.5866C73.845 10.5866 73.0788 10.7845 72.5041 11.2792C71.9294 11.7739 71.5463 12.5654 71.4505 13.5548H66.1827C66.1827 12.3675 66.5659 11.2792 67.0448 10.4876V10.4876ZM77.4836 18.2049C77.1972 18.3039 76.8141 18.4028 76.4301 18.5018C76.0469 18.6017 75.6638 18.6017 75.1849 18.6996C74.8028 18.7986 74.3239 18.7986 73.9398 18.8975L72.7905 19.1943C72.4074 19.2933 72.0243 19.4912 71.8327 19.689C71.5454 19.8869 71.3538 20.1837 71.1623 20.4806C70.8759 20.8763 70.8759 21.2721 70.8759 21.7668C70.8759 22.2615 70.9717 22.6572 71.1632 22.9541C71.3548 23.2509 71.5463 23.5487 71.8337 23.7456C72.121 23.9435 72.5041 24.0434 72.8872 24.1413C73.2703 24.2393 73.6525 24.2403 74.1314 24.2403C75.1859 24.2403 75.9512 24.0434 76.5258 23.7456C77.1015 23.3508 77.4836 22.9541 77.7719 22.4594C78.0592 21.9647 78.2508 21.47 78.2508 20.9753C78.3466 20.4806 78.3466 20.0858 78.3466 19.788V17.7102C78.0592 17.9081 77.7719 18.107 77.4836 18.2049ZM91.5649 7.51943V10.2898H91.6607C92.3302 9.10247 93.1932 8.31095 94.2458 7.81625C95.3003 7.32156 96.4496 7.02474 97.5022 7.02474C98.9389 7.02474 100.088 7.22261 100.95 7.61837C101.908 8.01413 102.579 8.60777 103.058 9.30035C103.537 9.99293 103.919 10.8834 104.207 11.8728C104.398 12.8622 104.495 13.9515 104.495 15.2367V27.4064H99.2272V16.2261C99.2272 14.5442 98.9389 13.3569 98.46 12.5654C97.9811 11.7739 97.1191 11.2792 95.7782 11.2792C94.3415 11.2792 93.287 11.8728 92.6175 12.7633C91.9471 13.6537 91.6597 15.1378 91.6597 17.1166V27.5053H86.3919V7.51943H91.5649ZM116.274 11.0813C115.413 11.0813 114.741 11.2792 114.168 11.6759C113.593 12.0707 113.114 12.5654 112.731 13.2589C112.348 13.8526 112.156 14.5452 111.964 15.3367C111.773 16.1292 111.773 16.8208 111.773 17.6133C111.773 18.3049 111.869 19.0974 111.964 19.789C112.156 20.5815 112.347 21.1741 112.731 21.7678C113.114 22.3624 113.497 22.8571 114.072 23.2519C114.647 23.6476 115.316 23.8465 116.178 23.8465C117.424 23.8465 118.382 23.4507 119.147 22.7572C119.819 22.0656 120.297 21.0762 120.393 19.789H125.469C125.087 22.4604 124.13 24.4392 122.499 25.8253C120.872 27.2095 118.765 27.903 116.178 27.903C114.741 27.903 113.4 27.6062 112.251 27.1115C111.005 26.6168 110.047 25.9242 109.186 25.0338C108.325 24.1433 107.653 23.055 107.174 21.8677C106.695 20.5815 106.504 19.2943 106.504 17.8102C106.504 16.2271 106.695 14.842 107.174 13.5558C107.653 12.2695 108.228 11.0823 109.089 10.0929C109.951 9.10346 111.005 8.41088 112.155 7.81724C113.399 7.32254 114.74 7.02572 116.273 7.02572C117.423 7.02572 118.477 7.2236 119.529 7.52042C120.582 7.81724 121.541 8.31194 122.307 8.90459C123.169 9.49922 123.839 10.2898 124.318 11.2792C124.797 12.1696 125.085 13.3569 125.18 14.6431H120.008C119.82 12.2686 118.573 11.0813 116.274 11.0813V11.0813ZM28.1588 1.87986H38.886V4.55124H28.1588V1.87986ZM133.419 22.6572C134.186 23.4488 135.43 23.8445 136.867 23.8445C137.922 23.8445 138.879 23.5477 139.645 23.053C140.412 22.4584 140.891 21.8657 141.081 21.2711H145.68C144.912 23.6457 143.764 25.3286 142.231 26.416C140.697 27.4054 138.878 28 136.676 28C135.143 28 133.802 27.7022 132.556 27.2075C131.377 26.7534 130.325 26.0062 129.492 25.0318C128.63 24.1413 127.96 23.053 127.577 21.7658C127.098 20.4796 126.906 19.0954 126.906 17.5114C126.906 16.0273 127.098 14.6431 127.577 13.3559C128.038 12.115 128.72 10.9744 129.588 9.99293C130.45 9.10247 131.503 8.31095 132.653 7.81625C133.898 7.32156 135.239 7.02474 136.676 7.02474C138.303 7.02474 139.739 7.32156 140.89 8.01413C142.134 8.70671 143.092 9.49823 143.859 10.6855C144.625 11.7739 145.2 13.0591 145.583 14.4452C145.965 15.8294 146.062 17.3135 145.965 18.8975H132.077C132.077 20.3816 132.653 21.8657 133.419 22.6572V22.6572ZM139.549 12.2686C138.878 11.576 137.824 11.1802 136.58 11.1802C135.718 11.1802 135.046 11.3771 134.472 11.6749C133.897 11.9717 133.418 12.3665 133.132 12.7633C132.845 13.16 132.556 13.6537 132.461 14.1484C132.366 14.6431 132.271 15.0379 132.271 15.4346H140.891C140.602 13.9505 140.124 12.9611 139.549 12.2686Z" fill="white"/>
</svg>
