<svg width="162" height="32" viewBox="0 0 162 32" fill="none" xmlns="http://www.w3.org/2000/svg">
<g clip-path="url(#clip0_2123_56465)">
<path d="M34.3006 2.67999C31.6795 1.428 28.8769 0.518103 25.9468 0C25.587 0.66419 25.1666 1.55754 24.8767 2.2682C21.762 1.78999 18.6759 1.78999 15.6184 2.2682C15.3286 1.55754 14.8986 0.66419 14.5356 0C11.6023 0.518103 8.79649 1.43134 6.17537 2.68662C0.888535 10.8427 -0.544637 18.7962 0.171951 26.6368C3.67845 29.3101 7.07668 30.934 10.4176 31.9967C11.2424 30.8377 11.9781 29.6057 12.6119 28.3072C11.4048 27.839 10.2488 27.2611 9.15639 26.5903C9.44619 26.3711 9.72966 26.142 10.0035 25.9062C16.6662 29.0876 23.9053 29.0876 30.4884 25.9062C30.7655 26.142 31.0489 26.3711 31.3355 26.5903C30.2399 27.2644 29.0807 27.8423 27.8737 28.3105C28.5074 29.6057 29.2399 30.8411 30.068 32C33.4121 30.9373 36.8135 29.3134 40.32 26.6368C41.1608 17.5476 38.8836 9.6671 34.3006 2.67999ZM13.5196 21.8149C11.5195 21.8149 9.87931 19.9087 9.87931 17.5874C9.87931 15.2661 11.4845 13.3566 13.5196 13.3566C15.5547 13.3566 17.1949 15.2628 17.1599 17.5874C17.163 19.9087 15.5547 21.8149 13.5196 21.8149ZM26.9723 21.8149C24.9723 21.8149 23.3321 19.9087 23.3321 17.5874C23.3321 15.2661 24.9372 13.3566 26.9723 13.3566C29.0074 13.3566 30.6476 15.2628 30.6126 17.5874C30.6126 19.9087 29.0074 21.8149 26.9723 21.8149Z" fill="white"/>
<path d="M54.4121 8.16333H63.1065C65.2024 8.16333 66.973 8.50537 68.4257 9.18616C69.8744 9.8669 70.9606 10.8167 71.6805 12.0321C72.3999 13.2476 72.7629 14.639 72.7629 16.2065C72.7629 17.7407 72.3871 19.1322 71.6356 20.3775C70.884 21.6261 69.7406 22.6125 68.2025 23.3397C66.6644 24.067 64.7595 24.4323 62.4826 24.4323H54.4121V8.16333ZM62.3932 20.2978C63.8042 20.2978 64.8904 19.9292 65.6481 19.1953C66.4063 18.458 66.7854 17.4551 66.7854 16.1832C66.7854 15.0043 66.4474 14.0645 65.7724 13.3605C65.0975 12.6564 64.0751 12.3011 62.7085 12.3011H59.9887V20.2978H62.3932Z" fill="white"/>
<path d="M85.7783 24.4126C84.5744 24.0871 83.4881 23.6156 82.5234 22.9945V19.1357C83.2528 19.7235 84.2303 20.2084 85.4564 20.5902C86.6825 20.9688 87.8676 21.1581 89.0138 21.1581C89.5489 21.1581 89.9535 21.085 90.2272 20.9389C90.5014 20.7928 90.6385 20.6168 90.6385 20.4142C90.6385 20.1818 90.5652 19.9892 90.4153 19.8331C90.2655 19.677 89.9757 19.5475 89.5461 19.4379L86.8707 18.8102C85.3387 18.4383 84.2525 17.9236 83.6064 17.2627C82.9597 16.6052 82.6378 15.7417 82.6378 14.6724C82.6378 13.7724 82.9181 12.9921 83.4854 12.3246C84.0488 11.6571 84.8514 11.1423 85.8927 10.7803C86.9345 10.4151 88.1507 10.2324 89.5489 10.2324C90.7972 10.2324 91.9407 10.3719 92.9825 10.6508C94.0238 10.9298 94.8836 11.2851 95.5686 11.7201V15.3698C94.8675 14.9348 94.0649 14.5928 93.1479 14.3337C92.2337 14.078 91.2946 13.9518 90.326 13.9518C88.9278 13.9518 88.2306 14.2008 88.2306 14.6957C88.2306 14.9282 88.3388 15.1008 88.5553 15.217C88.7718 15.3333 89.1698 15.4528 89.7465 15.579L91.9756 15.9975C93.4316 16.2598 94.5173 16.7214 95.2305 17.3789C95.9443 18.0365 96.3007 19.0095 96.3007 20.298C96.3007 21.7093 95.7118 22.8285 94.53 23.6587C93.3483 24.489 91.6731 24.904 89.5011 24.904C88.2239 24.9008 86.9823 24.738 85.7783 24.4126Z" fill="white"/>
<path d="M101.562 23.9243C100.286 23.2733 99.3203 22.39 98.677 21.2742C98.0337 20.1584 97.709 18.9031 97.709 17.5083C97.709 16.1136 98.0431 14.8649 98.712 13.7657C99.3808 12.6665 100.362 11.8031 101.655 11.1754C102.948 10.5478 104.492 10.2356 106.292 10.2356C108.521 10.2356 110.372 10.7238 111.843 11.7001V15.9542C111.324 15.5822 110.719 15.28 110.028 15.0476C109.336 14.8151 108.598 14.6988 107.808 14.6988C106.426 14.6988 105.346 14.9612 104.566 15.4892C103.785 16.0172 103.394 16.7047 103.394 17.5581C103.394 18.395 103.773 19.0791 104.531 19.6171C105.289 20.1517 106.387 20.4207 107.83 20.4207C108.572 20.4207 109.305 20.3078 110.028 20.0853C110.747 19.8595 111.369 19.5839 111.888 19.2584V23.373C110.254 24.3958 108.359 24.9072 106.203 24.9072C104.388 24.9006 102.839 24.5751 101.562 23.9243Z" fill="white"/>
<path d="M117.406 23.9243C116.119 23.2734 115.139 22.3834 114.463 21.251C113.788 20.1186 113.447 18.8567 113.447 17.4619C113.447 16.0671 113.785 14.8218 114.463 13.7292C115.141 12.6367 116.116 11.7799 117.397 11.1588C118.673 10.5378 120.199 10.229 121.966 10.229C123.734 10.229 125.26 10.5378 126.537 11.1588C127.814 11.7799 128.789 12.63 129.458 13.7159C130.126 14.8019 130.461 16.0472 130.461 17.4586C130.461 18.8533 130.126 20.1153 129.458 21.2477C128.789 22.3801 127.811 23.2701 126.524 23.921C125.237 24.5719 123.718 24.8973 121.964 24.8973C120.209 24.8973 118.689 24.5752 117.406 23.9243ZM124.18 19.7998C124.722 19.2353 124.995 18.4881 124.995 17.5582C124.995 16.6284 124.725 15.8878 124.18 15.3398C123.639 14.7886 122.899 14.5129 121.964 14.5129C121.011 14.5129 120.266 14.7886 119.721 15.3398C119.18 15.8911 118.909 16.6284 118.909 17.5582C118.909 18.4881 119.18 19.2353 119.721 19.7998C120.263 20.3643 121.011 20.6499 121.964 20.6499C122.899 20.6466 123.639 20.3643 124.18 19.7998Z" fill="white"/>
<path d="M143.854 11.0923V16.1135C143.288 15.7249 142.555 15.5323 141.647 15.5323C140.459 15.5323 139.542 15.9076 138.905 16.6581C138.265 17.4087 137.946 18.5776 137.946 20.1583V24.4356H132.484V10.8366H137.835V15.1604C138.131 13.5796 138.612 12.4141 139.274 11.6602C139.934 10.9097 140.787 10.5344 141.826 10.5344C142.612 10.5344 143.288 10.7204 143.854 11.0923Z" fill="white"/>
<path d="M162.001 7.69824V24.4355H156.538V21.3903C156.076 22.536 155.376 23.4094 154.433 24.0071C153.49 24.6016 152.325 24.9004 150.943 24.9004C149.707 24.9004 148.631 24.5882 147.71 23.9606C146.79 23.333 146.08 22.4729 145.58 21.3803C145.083 20.2877 144.831 19.0524 144.831 17.6709C144.815 16.2462 145.079 14.9677 145.624 13.8352C146.166 12.7028 146.933 11.8195 147.92 11.1852C148.908 10.5509 150.035 10.2321 151.299 10.2321C153.902 10.2321 155.647 11.411 156.538 13.7655V7.69824H162.001ZM155.723 19.7066C156.281 19.142 156.558 18.4081 156.558 17.5115C156.558 16.6447 156.287 15.9373 155.746 15.3961C155.204 14.8548 154.462 14.5824 153.529 14.5824C152.608 14.5824 151.873 14.8581 151.322 15.4093C150.77 15.9606 150.497 16.6746 150.497 17.558C150.497 18.4413 150.77 19.162 151.322 19.7198C151.873 20.2777 152.599 20.5567 153.506 20.5567C154.427 20.5534 155.165 20.2711 155.723 19.7066Z" fill="white"/>
<path d="M77.3638 12.2847C78.8674 12.2847 80.0869 11.1428 80.0869 9.73423C80.0869 8.32567 78.8674 7.18384 77.3638 7.18384C75.8595 7.18384 74.6406 8.32567 74.6406 9.73423C74.6406 11.1428 75.8595 12.2847 77.3638 12.2847Z" fill="white"/>
<path d="M74.6406 14.0413C76.3091 14.7918 78.3795 14.825 80.0864 14.0413V24.5087H74.6406V14.0413Z" fill="white"/>
</g>
<defs>
<clipPath id="clip0_2123_56465">
<rect width="162.001" height="32" fill="white"/>
</clipPath>
</defs>
</svg>
