<svg width="130" height="32" viewBox="0 0 130 32" fill="none" xmlns="http://www.w3.org/2000/svg">
<path d="M39.7195 12.8751C41.2074 12.8751 42.4135 11.6593 42.4135 10.1597C42.4135 8.65985 41.2074 7.44427 39.7195 7.44427C38.2316 7.44427 37.0256 8.65985 37.0256 10.1597C37.0256 11.6593 38.2316 12.8751 39.7195 12.8751V12.8751ZM128.627 22.1528C128.217 21.8624 127.901 21.8143 127.639 22.3783C123.114 32.2534 115.489 27.3255 116.247 27.7592C117.938 26.9796 122.386 23.3848 121.714 18.4211C121.305 15.3877 118.722 14.0421 115.979 14.5239C111.192 15.3649 109.431 20.5681 110.327 25.1745C110.484 25.9657 110.765 26.6181 111.045 27.2572C105.635 31.6902 103.487 23.2889 103.243 22.2849C103.233 22.2311 107.42 18.7146 108.584 10.335C109.805 1.5526 107.025 -0.046521 104.182 0.0033715C98.9208 0.0957367 97.4991 11.1721 99.409 20.4035C99.2491 20.4455 98.5046 20.861 97.3085 20.9076C96.4477 18.1783 92.7699 15.786 91.8073 16.7079C89.3983 19.014 92.3916 23.5225 94.4977 23.8761C93.2325 31.7286 85.32 29.7838 86.7929 19.9458C89.3696 15.1241 91.3292 7.95471 90.9796 3.62659C90.8557 2.09425 89.7314 0.0412387 87.1888 0.143071C82.2983 0.338035 81.7666 11.4175 82.3399 19.2811C82.3115 19.0874 82.0393 20.2365 80.0352 20.8078C79.5612 18.1563 75.3245 15.4949 74.3272 16.7744C72.4602 19.1693 75.6957 23.4393 77.2283 23.7371C75.9631 31.5894 68.0509 29.6447 69.5238 19.8066C72.1004 14.9852 74.0598 7.81578 73.7102 3.48766C73.5863 1.95507 72.4622 -0.0979487 69.9194 0.00362736C65.0289 0.198848 64.4972 11.2783 65.0705 19.1419C65.0418 18.9451 64.7633 20.1321 62.6775 20.6939C62.6076 17.2539 58.3555 15.6765 57.334 16.7742C55.5135 18.7307 57.7509 22.7452 59.8208 23.7371C58.5556 31.5894 50.6433 29.6447 52.1162 19.8066C54.6929 14.9852 56.6525 7.81578 56.3026 3.48766C56.179 1.95507 55.0547 -0.0979487 52.5118 0.00362736C47.6216 0.198848 47.228 11.8353 47.8014 19.6986C46.1906 26.6531 40.7887 35.338 41.4905 17.9404C41.5598 16.7199 41.6355 16.2566 41.0317 15.7996C40.5793 15.4445 39.5504 15.6154 38.988 15.6295C38.3045 15.6571 38.1331 16.0601 37.9821 16.6693C37.6301 18.2423 37.5669 19.7672 37.5166 21.8479C37.4836 22.8211 37.4062 23.2753 37.0342 24.6024C36.6628 25.9293 34.5434 28.3546 33.3831 27.9491C31.7733 27.3913 32.3014 22.8119 32.6031 19.6656C32.8544 17.1792 32.0495 16.0626 29.9873 15.6566C28.78 15.403 28.0465 15.4419 26.7891 15.0425C25.6001 14.6649 25.3312 12.3985 22.7952 13.1538C21.4081 13.5672 22.2998 16.5288 21.9664 18.7238C20.3275 29.5213 16.9172 29.8179 15.3352 24.5728C22.4605 6.9873 17.3964 0.0545433 14.432 0.0545433C11.3445 0.0545433 7.81523 2.19762 9.30972 15.9096C8.58304 15.696 8.3596 15.5808 7.56411 15.5808C3.06515 15.5808 0 19.2458 0 23.7668C0 28.2878 3.06541 31.953 7.56437 31.953C10.2202 31.953 12.0849 30.7359 13.4971 28.853C14.4186 30.1827 15.5406 31.9735 17.5924 31.8929C23.7082 31.6529 25.4868 19.0111 25.6968 18.306C26.3506 18.4076 26.9691 18.5997 27.5729 18.7013C28.5789 18.8535 28.652 19.2547 28.6292 20.2743C28.3626 28.8722 29.937 31.8827 33.5085 31.8827C35.4983 31.8827 37.2719 29.9125 38.4937 28.5038C39.4062 30.4017 40.8603 31.8246 42.8111 31.8824C47.5381 32.0009 49.3479 24.4088 49.1829 25.4079C49.0534 26.1918 50.7165 31.8397 55.5828 31.8601C61.6108 31.8857 62.7313 25.2058 62.8648 24.0869C62.8816 23.8643 62.889 23.8873 62.8648 24.0869L62.8603 24.1547C64.774 23.796 65.7614 22.762 65.7614 22.762C65.7614 22.762 67.298 31.964 72.9901 31.8604C78.901 31.7524 80.0157 25.7141 80.1619 24.5367C80.1812 24.2573 80.1927 24.29 80.1619 24.5367C80.1611 24.5482 80.1604 24.5597 80.1596 24.5712C82.4329 23.7379 83.0308 22.9015 83.0308 22.9015C83.0308 22.9015 84.2521 31.9205 90.2595 31.9993C95.6129 32.0699 97.5969 26.5457 97.6086 24.2335C98.5115 24.2432 100.182 23.6936 100.143 23.6624C100.143 23.6624 102.103 31.548 107.579 31.953C110.151 32.1431 112.079 30.4951 113.179 29.7434C115.762 31.852 124.366 34.5451 129.799 25.2638C130.565 23.9318 128.917 22.3583 128.627 22.1528V22.1528ZM7.34728 28.8914C4.7224 28.8914 3.03926 26.4456 3.03926 23.8085C3.03926 21.1716 4.58427 18.7259 7.20915 18.7259C8.39032 18.7259 9.04743 18.8569 9.96733 19.6631C10.1342 20.3255 10.6069 21.8535 10.837 22.5474C11.1452 23.4759 11.5118 24.2662 11.8815 25.1264C11.3534 27.3327 9.62202 28.8914 7.34728 28.8914V28.8914ZM13.7437 19.7406C13.6345 19.5653 13.6574 19.6731 13.5352 19.5075C13.0541 18.1886 12.1268 15.2446 12.0194 11.9008C11.898 8.1182 12.5237 3.68442 14.368 3.68442C15.6178 3.68442 16.9459 12.6702 13.7434 19.7406H13.7437ZM50.7025 15.7993C50.4064 13.5547 50.391 3.54804 52.7749 3.8236C54.0911 4.36091 51.9403 13.8034 50.7025 15.7993ZM68.11 15.7993C67.814 13.5547 67.7985 3.54804 70.1824 3.8236C71.4987 4.36091 69.3478 13.8034 68.11 15.7993ZM85.3795 15.9388C85.0831 13.6939 85.0679 3.68723 87.4516 3.96279C88.7678 4.5001 86.617 13.9428 85.3795 15.9388ZM104.445 3.23794C106.624 3.01023 106.534 12.6014 102.16 18.6565C101.595 16.4679 100.73 3.9894 104.445 3.23769V3.23794ZM113.606 23.8761C112.906 20.3127 114.714 17.9724 116.579 17.7157C117.231 17.6108 118.175 18.0363 118.364 18.8318C118.674 20.3309 118.319 22.5545 114.145 25.3759C114.152 25.4 113.762 24.6697 113.606 23.8761H113.606Z" fill="white"/>
</svg>
