<svg width="162" height="32" viewBox="0 0 162 32" fill="none" xmlns="http://www.w3.org/2000/svg">
<path d="M10.2627 31.5068H4.15838V15.9761H0V10.9196H4.15822V7.32158C4.15822 3.05789 5.9974 0 12.0852 0C13.3728 0 15.3942 0.264869 15.3942 0.264869V4.96009H13.271C11.1077 4.96009 10.263 5.63168 10.263 7.48841V10.9196H15.3132L14.8635 15.9761H10.2629L10.2627 31.5068ZM24.2692 10.5155C24.1803 10.5155 24.0888 10.5189 23.9982 10.5212C18.3379 10.5212 15.7482 14.8665 15.7482 21.0349C15.7482 28.8054 19.1074 31.9153 24.0424 31.9153C26.8659 31.9153 28.721 30.7024 29.8485 28.439V31.5089H35.6546V10.9218H29.8485V14.0878C28.9279 12.0509 27.021 10.5397 24.2692 10.5155ZM25.7455 15.3802C28.1229 15.3802 29.5498 17.0726 29.5498 19.9513L29.5553 22.8915C29.5553 24.8317 28.3767 27.1016 25.7455 27.1016C21.7004 27.1016 21.8084 22.6438 21.8084 21.1591C21.8084 16.1648 23.9637 15.3802 25.7455 15.3802ZM37.9994 21.2164C37.9994 18.7147 37.8821 10.5289 48.3317 10.5289C52.5264 10.5289 54.2779 11.8902 54.2779 11.8902L52.8702 16.3465C52.8702 16.3465 51.1209 15.3634 48.8415 15.3634C45.9221 15.3634 44.0593 17.0906 44.0593 20.1297L44.0625 22.3088C44.0625 25.229 45.8599 27.1783 48.8475 27.1783C50.9241 27.1783 52.8379 26.186 52.8379 26.186L54.2421 30.5492C54.2421 30.5492 52.6406 31.919 48.361 31.919C38.4113 31.919 37.9995 24.5747 37.9995 21.2164H37.9994ZM88.3211 10.5212C93.9815 10.5212 96.6121 14.8665 96.6121 21.0349C96.6121 28.8054 93.2527 31.9153 88.3177 31.9153C85.4942 31.9153 83.407 30.7026 82.2795 28.439V31.5089L76.5465 31.5066V0.625963L82.6334 0.0841561V13.8089C83.512 11.4077 86.3991 10.5212 88.3213 10.5212H88.3211ZM86.6146 15.3802C84.2372 15.3802 82.6334 17.0726 82.6334 19.9513L82.6278 22.8915C82.6242 24.8317 83.7385 27.1016 86.6146 27.1016C90.6597 27.1016 90.5517 22.6438 90.5517 21.1591C90.5517 16.1648 88.3966 15.3802 86.6146 15.3802ZM64.8394 10.5382C58.4193 10.5382 55.0299 14.1106 55.0299 20.4592V21.6387C55.0299 29.8786 59.7897 32 65.4642 32C70.9798 32 73.4764 30.4255 73.4764 30.4255L72.3374 26.2326C72.3374 26.2326 69.4006 27.5078 66.194 27.5078C62.8698 27.5078 61.4401 26.6431 61.0737 23.3827H73.963V20.0189C73.963 13.1323 70.1591 10.538 64.8392 10.538L64.8394 10.5382ZM64.9941 14.7367C67.2164 14.7367 68.6564 16.1276 68.5774 19.3531H61.0849C61.2148 15.9583 62.7677 14.7369 64.9941 14.7369V14.7367ZM108.749 10.5099C102.156 10.5099 98.6855 14.3017 98.6855 21.0969C98.6855 30.4202 104.669 31.921 108.76 31.921C114.75 31.921 118.736 28.6296 118.736 21.1816C118.736 13.4294 114.255 10.5099 108.749 10.5099V10.5099ZM108.666 15.3971C111.565 15.3971 112.714 17.6114 112.714 20.132V22.2991C112.714 25.3525 111.107 27.1186 108.655 27.1186C106.363 27.1186 104.751 25.4666 104.751 22.2991V20.132C104.751 16.7539 106.669 15.3971 108.666 15.3971V15.3971ZM130.862 10.5099C124.269 10.5099 120.798 14.3017 120.798 21.0969C120.798 30.4202 126.781 31.921 130.873 31.921C136.863 31.921 140.848 28.6296 140.848 21.1816C140.848 13.4294 136.367 10.5099 130.862 10.5099V10.5099ZM130.779 15.3971C133.678 15.3971 134.827 17.6114 134.827 20.132V22.2991C134.827 25.3525 133.219 27.1186 130.768 27.1186C128.475 27.1186 126.864 25.4666 126.864 22.2991V20.132C126.864 16.7539 128.781 15.3971 130.779 15.3971V15.3971ZM143.149 31.5068V0.625963L149.253 0.0841561V20.7824L155.31 10.9196H161.757L155.439 21.1346L162 31.5068H155.535L149.253 21.4355V31.5068H143.149Z" fill="#E4E7EC"/>
</svg>
