<svg width="146" height="28" viewBox="0 0 146 28" fill="none" xmlns="http://www.w3.org/2000/svg">
<g clip-path="url(#clip0_2112_54373)">
<path d="M11.4234 4.38498C9.70443 4.38498 9.20745 5.14021 9.20745 6.80594V9.56923H13.7925L13.3329 14.0335H9.20923V27.5818H3.70685V14.0335H0V9.56923H3.70685V6.88182C3.70685 2.37869 5.53979 7.09432e-05 10.6539 7.09432e-05C11.7255 -0.00241899 12.7963 0.0606366 13.8602 0.188878V4.39027L11.4234 4.38498Z" fill="#E4E7EC"/>
<path d="M14.1758 18.0072C14.1758 12.9747 16.5823 9.18445 21.6251 9.18445C24.3754 9.18445 26.0552 10.5855 26.8585 12.3254V9.56912H32.1293V27.5817H26.8585V24.8572C26.0944 26.5989 24.3754 27.9611 21.6251 27.9611C16.5823 27.9611 14.1758 24.1761 14.1758 19.1383V18.0072ZM19.6764 19.2195C19.6764 21.9051 20.6686 23.6838 23.2283 23.6838C25.4834 23.6838 26.6287 22.0569 26.6287 19.4842V17.6755C26.6287 15.1028 25.4834 13.4758 23.2283 13.4758C20.6686 13.4758 19.6764 15.2545 19.6764 17.9402V19.2195Z" fill="#E4E7EC"/>
<path d="M43.5875 9.18994C45.725 9.18994 47.7503 9.64519 48.8583 10.4004L47.6363 14.2612C46.4902 13.7206 45.2381 13.4363 43.9687 13.4284C40.9886 13.4284 39.6936 15.1312 39.6936 18.0462V19.1049C39.6936 22.0199 40.9922 23.7227 43.9687 23.7227C45.2381 23.7148 46.4902 23.4305 47.6363 22.8898L48.8583 26.7489C47.7503 27.5059 45.7268 27.9611 43.5875 27.9611C37.1303 27.9611 34.1895 24.5168 34.1895 18.992V18.1591C34.1895 12.6343 37.1303 9.18994 43.5875 9.18994Z" fill="#E4E7EC"/>
<path d="M49.584 19.2636V17.6755C49.584 12.5672 52.5249 9.20569 58.5243 9.20569C64.1781 9.20569 66.6612 12.6113 66.6612 17.6067V20.483H55.0828C55.1986 22.9427 56.3066 24.0403 59.3579 24.0403C61.4224 24.0403 63.5991 23.6239 65.2041 22.9427L66.2105 26.6748C64.7588 27.4335 61.7787 28 59.1441 28C52.1811 27.9982 49.584 24.5573 49.584 19.2636ZM55.0846 16.9168H61.7323V16.4633C61.7323 14.4958 60.9308 12.9342 58.526 12.9342C56.0411 12.936 55.0846 14.4888 55.0846 16.9097V16.9168Z" fill="#E4E7EC"/>
<path d="M87.0508 19.1437C87.0508 24.1762 84.6069 27.9665 79.5694 27.9665C76.8191 27.9665 74.9096 26.6042 74.1454 24.8626V27.5871H68.9512V0.524106L74.4518 0.0300293V12.0643C75.2534 10.4762 77.0115 9.18808 79.5712 9.18808C84.614 9.18808 87.0526 12.973 87.0526 18.0109L87.0508 19.1437ZM81.5502 17.8944C81.5502 15.3587 80.558 13.4671 77.9217 13.4671C75.6666 13.4671 74.4446 15.0552 74.4446 17.6297V19.5213C74.4446 22.094 75.6666 23.6839 77.9217 23.6839C80.558 23.6839 81.5502 21.7923 81.5502 19.2566V17.8944Z" fill="#E4E7EC"/>
<path d="M88.8926 19.029V18.1221C88.8926 12.9361 91.8727 9.18994 97.9468 9.18994C104.021 9.18994 107.003 12.9361 107.003 18.1221V19.029C107.003 24.2133 104.023 27.9611 97.9486 27.9611C91.8744 27.9611 88.8926 24.2133 88.8926 19.029ZM101.5 17.7427C101.5 15.3588 100.507 13.4672 97.9379 13.4672C95.3693 13.4672 94.3843 15.3588 94.3843 17.7427V19.4084C94.3843 21.7923 95.3782 23.6839 97.9379 23.6839C100.498 23.6839 101.5 21.7923 101.5 19.4084V17.7427Z" fill="#E4E7EC"/>
<path d="M108.832 19.029V18.1221C108.832 12.9361 111.812 9.18994 117.886 9.18994C123.96 9.18994 126.941 12.9361 126.941 18.1221V19.029C126.941 24.2133 123.96 27.9611 117.886 27.9611C111.812 27.9611 108.832 24.2133 108.832 19.029ZM121.44 17.7427C121.44 15.3588 120.446 13.4672 117.886 13.4672C115.327 13.4672 114.334 15.3588 114.334 17.7427V19.4084C114.334 21.7923 115.327 23.6839 117.886 23.6839C120.446 23.6839 121.44 21.7923 121.44 19.4084V17.7427Z" fill="#E4E7EC"/>
<path d="M134.502 18.1591L139.926 9.56922H145.771L140.08 18.4626L146.001 27.5818H140.156L134.502 18.759V27.5818H129V0.524105L134.502 0.0300293V18.1591Z" fill="#E4E7EC"/>
</g>
<defs>
<clipPath id="clip0_2112_54373">
<rect width="146.001" height="28" fill="white"/>
</clipPath>
</defs>
</svg>
