<svg width="76" height="76" viewBox="0 0 76 76" fill="none" xmlns="http://www.w3.org/2000/svg">
<circle cx="38" cy="38" r="38" fill="#075FE4"/>
<g clip-path="url(#clip0_2123_56549)">
<path fill-rule="evenodd" clip-rule="evenodd" d="M37.6554 12C31.3245 12.0003 25.2004 14.2534 20.3789 18.3562C15.5574 22.459 12.3533 28.1437 11.3399 34.3929C10.3265 40.6421 11.5701 47.048 14.848 52.4642C18.126 57.8804 23.2243 61.9533 29.2307 63.9542C30.5644 64.198 31.0505 63.3765 31.0505 62.6695C31.0505 62.0362 31.0276 60.3604 31.0145 58.1347C23.5995 59.7467 22.035 54.5623 22.035 54.5623C21.5448 52.9509 20.4948 51.5677 19.0745 50.6625C16.6541 49.008 19.2578 49.0423 19.2578 49.0423C20.1026 49.1587 20.9097 49.4667 21.6173 49.9426C22.325 50.4185 22.9145 51.0498 23.3409 51.7884C23.7019 52.4462 24.1897 53.026 24.7763 53.494C25.3628 53.9621 26.0363 54.3092 26.7578 54.5153C27.4794 54.7214 28.2346 54.7823 28.9799 54.6946C29.7251 54.6069 30.4456 54.3722 31.0996 54.0042C31.2212 52.6525 31.8212 51.3886 32.7917 50.4399C26.8725 49.7673 20.6488 47.4811 20.6488 37.2644C20.6108 34.616 21.5936 32.0546 23.3933 30.1112C22.5789 27.812 22.6726 25.2887 23.6551 23.0562C23.6551 23.0562 25.8922 22.3394 30.985 25.7892C35.3538 24.5935 39.9636 24.5935 44.3324 25.7892C49.4219 22.3394 51.6557 23.0562 51.6557 23.0562C52.6395 25.2882 52.7349 27.8114 51.9225 30.1112C53.7224 32.0541 54.7037 34.6162 54.662 37.2644C54.662 47.5056 48.4285 49.7591 42.4896 50.4186C43.1257 51.0651 43.6163 51.8401 43.9284 52.6916C44.2406 53.5431 44.3671 54.4515 44.2996 55.356C44.2996 58.9203 44.2669 61.7956 44.2669 62.6695C44.2669 63.3814 44.748 64.2111 46.0998 63.9509C52.1033 61.9459 57.1977 57.8705 60.4718 52.4536C63.7459 47.0368 64.9861 40.6318 63.9706 34.3843C62.9551 28.1369 59.7502 22.4544 54.929 18.3534C50.1078 14.2524 43.9849 12.0003 37.6554 12V12Z" fill="white"/>
</g>
<defs>
<clipPath id="clip0_2123_56549">
<rect width="53.3158" height="52" fill="white" transform="translate(11 12)"/>
</clipPath>
</defs>
</svg>
