<svg width="136" height="44" viewBox="0 0 136 44" fill="none" xmlns="http://www.w3.org/2000/svg">
<g clip-path="url(#clip0_2118_54327)">
<path d="M16.7492 0H17.9586C22.1571 0.0904673 26.2872 1.76411 29.2536 4.72692C28.1583 5.83514 27.0402 6.89813 25.9678 8.00636C24.3021 6.51365 22.2941 5.36019 20.1035 4.95309C16.8633 4.27458 13.3721 4.88524 10.6568 6.7172C7.6904 8.63963 5.6824 11.8965 5.24885 15.3794C4.76967 18.8172 5.75085 22.4359 8.00985 25.1047C10.1776 27.7056 13.4862 29.334 16.909 29.4471C20.1035 29.628 23.435 28.6555 25.7624 26.4391C27.5879 24.8785 28.4322 22.5037 28.706 20.1968C24.9181 20.1968 21.1303 20.2194 17.3425 20.1968V15.5378H33.2924C34.1139 20.5361 32.9273 26.1677 29.0939 29.7411C26.5382 32.2742 23.0014 33.7669 19.3961 34.0609C15.905 34.4002 12.2997 33.7443 9.1964 32.0707C5.47703 30.103 2.51067 26.7783 1.0503 22.8656C-0.318791 19.2695 -0.341609 15.1985 0.936211 11.5798C2.09994 8.27776 4.33612 5.36019 7.21122 3.32467C9.97222 1.31178 13.3265 0.203551 16.7492 0Z" fill="#8895AA"/>
<path d="M108.252 1.17627H113.135V33.4732C111.515 33.4732 109.872 33.4959 108.252 33.4506C108.275 22.7076 108.252 11.9419 108.252 1.17627V1.17627Z" fill="#8895AA"/>
<path d="M44.1536 12.371C47.1656 11.8056 50.4286 12.4389 52.9158 14.2256C55.1748 15.8088 56.7493 18.2967 57.2284 21.0107C57.8445 24.1544 57.0687 27.5922 55.0151 30.08C52.8017 32.8619 49.1736 34.3546 45.6368 34.1285C42.3966 33.9475 39.2477 32.3417 37.331 29.7182C35.1632 26.8232 34.6384 22.8426 35.825 19.4501C37.0115 15.8088 40.3658 13.0269 44.1536 12.371V12.371ZM44.8382 16.6682C43.606 16.9849 42.4651 17.686 41.6436 18.6811C39.4302 21.3047 39.5672 25.5793 42.0087 28.0219C43.4006 29.4242 45.4999 30.08 47.4394 29.6956C49.2421 29.3789 50.8165 28.1802 51.6836 26.597C53.1896 23.9056 52.7561 20.1965 50.4514 18.0931C48.9683 16.7361 46.8005 16.1707 44.8382 16.6682Z" fill="#8895AA"/>
<path d="M68.3418 12.3712C71.7873 11.7153 75.5523 12.6653 78.1308 15.0626C82.3293 18.7944 82.7857 25.783 79.2032 30.0803C77.0355 32.7943 73.5215 34.287 70.0531 34.1287C66.7445 34.0382 63.4815 32.4098 61.5191 29.7184C59.3057 26.7556 58.8266 22.6845 60.0816 19.2242C61.3366 15.6959 64.6224 13.0045 68.3418 12.3712V12.3712ZM69.0263 16.6684C67.7941 16.9851 66.6532 17.6862 65.8317 18.6587C63.6412 21.2371 63.7325 25.4438 66.0828 27.909C67.4747 29.3791 69.6424 30.1029 71.6504 29.6958C73.4302 29.3565 75.0275 28.1804 75.8946 26.5973C77.3778 23.8832 76.9442 20.1741 74.6168 18.0707C73.1336 16.7137 70.9658 16.1709 69.0263 16.6684Z" fill="#8895AA"/>
<path d="M88.8561 13.6828C91.4802 12.0543 94.9714 11.602 97.8008 13.0042C98.6908 13.3887 99.4209 14.0446 100.128 14.7005C100.151 14.0899 100.128 13.4566 100.151 12.8233C101.68 12.8459 103.209 12.8233 104.76 12.8459V32.7941C104.738 35.8022 103.962 38.9912 101.771 41.1851C99.3753 43.6051 95.7016 44.3514 92.3929 43.8539C88.8561 43.3337 85.7757 40.7779 84.4066 37.5437C85.7757 36.8878 87.2132 36.3676 88.6279 35.757C89.4266 37.6116 91.0467 39.1948 93.0775 39.5566C95.1083 39.9185 97.4586 39.4209 98.782 37.7473C100.197 36.0284 100.197 33.6762 100.128 31.5728C99.0787 32.5906 97.8693 33.4953 96.4089 33.8345C93.2372 34.7166 89.746 33.631 87.3045 31.505C84.8401 29.379 83.3798 26.0995 83.5167 22.8426C83.5851 19.1561 85.6844 15.6052 88.8561 13.6828V13.6828ZM93.5795 16.5777C92.1876 16.8039 90.8869 17.5729 89.997 18.6359C87.8521 21.169 87.8521 25.2174 90.0198 27.7053C91.252 29.1754 93.2372 29.9896 95.1539 29.7861C96.9566 29.6051 98.6223 28.4743 99.5122 26.9137C101.018 24.2675 100.767 20.6714 98.7364 18.3645C97.4814 16.9396 95.4734 16.2385 93.5795 16.5777V16.5777Z" fill="#8895AA"/>
<path d="M119.001 14.8367C121.739 12.3036 125.96 11.4441 129.474 12.7785C132.806 14.0224 134.928 17.1662 136 20.4004C131.049 22.4359 126.12 24.4488 121.168 26.4843C121.853 27.7735 122.903 28.9496 124.317 29.4245C126.303 30.1257 128.676 29.8769 130.341 28.5651C131.003 28.0675 131.528 27.4116 132.03 26.7784C133.285 27.6152 134.54 28.4294 135.795 29.2662C134.015 31.9124 131.026 33.767 127.809 34.061C124.249 34.4907 120.461 33.1337 118.156 30.3745C114.369 26.032 114.734 18.7494 119.001 14.8367V14.8367ZM121.442 19.0208C120.666 20.129 120.347 21.486 120.37 22.8204C123.678 21.4634 126.987 20.1064 130.296 18.7268C129.748 17.4602 128.425 16.6912 127.078 16.4877C124.911 16.1032 122.652 17.2567 121.442 19.0208V19.0208Z" fill="#8895AA"/>
</g>
<defs>
<clipPath id="clip0_2118_54327">
<rect width="136" height="44" fill="white"/>
</clipPath>
</defs>
</svg>
