<svg width="104" height="34" viewBox="0 0 104 34" fill="none" xmlns="http://www.w3.org/2000/svg">
<g clip-path="url(#clip0_2112_54372)">
<path d="M12.8083 0H13.7332C16.9438 0.0699063 20.1022 1.36317 22.3706 3.6526C21.533 4.50896 20.678 5.33035 19.8579 6.18671C18.5841 5.03325 17.0485 4.14195 15.3734 3.82737C12.8956 3.30307 10.2258 3.77494 8.14936 5.19054C5.88094 6.67605 4.3454 9.19268 4.01386 11.8841C3.64742 14.5405 4.39775 17.3368 6.12523 19.399C7.78292 21.4088 10.3131 22.6671 12.9305 22.7545C15.3734 22.8943 17.921 22.1428 19.7008 20.4301C21.0968 19.2242 21.7424 17.3892 21.9518 15.6066C19.0552 15.6066 16.1586 15.6241 13.262 15.6066V12.0064H25.4591C26.0873 15.8687 25.1799 20.2204 22.2484 22.9817C20.2941 24.9391 17.5895 26.0925 14.8325 26.3197C12.1627 26.5819 9.40571 26.075 7.0326 24.7818C4.18835 23.2613 1.91994 20.6923 0.803178 17.6688C-0.243783 14.89 -0.261233 11.7443 0.715932 8.94801C1.60585 6.39643 3.31589 4.14195 5.51451 2.56906C7.62588 1.01364 10.1909 0.157289 12.8083 0Z" fill="#E4E7EC"/>
<path d="M82.7812 0.908813H86.5154V25.8655C85.2765 25.8655 84.0202 25.8829 82.7812 25.848C82.7987 17.5466 82.7812 9.2277 82.7812 0.908813V0.908813Z" fill="#E4E7EC"/>
<path d="M33.7649 9.55969C36.0682 9.12278 38.5635 9.61212 40.4655 10.9928C42.193 12.2161 43.397 14.1386 43.7634 16.2358C44.2345 18.665 43.6413 21.3214 42.0708 23.2439C40.3782 25.3935 37.6038 26.5469 34.8991 26.3722C32.4213 26.2324 30.0133 24.9915 28.5476 22.9642C26.8899 20.7272 26.4885 17.6514 27.3959 15.0299C28.3033 12.2161 30.8683 10.0665 33.7649 9.55969V9.55969ZM34.2884 12.8802C33.3461 13.1249 32.4737 13.6667 31.8455 14.4357C30.1529 16.463 30.2576 19.766 32.1247 21.6535C33.1891 22.7371 34.7944 23.2439 36.2776 22.9468C37.6561 22.7021 38.8601 21.7758 39.5232 20.5525C40.6749 18.4728 40.3433 15.6066 38.5809 13.9813C37.4467 12.9327 35.7891 12.4958 34.2884 12.8802Z" fill="#E4E7EC"/>
<path d="M52.2614 9.55976C54.8962 9.05294 57.7754 9.78695 59.7472 11.6395C62.9578 14.5231 63.3068 19.9234 60.5673 23.2439C58.9096 25.3411 56.2224 26.4946 53.5701 26.3723C51.0399 26.3023 48.5447 25.044 47.044 22.9643C45.3515 20.6749 44.985 17.5291 45.9447 14.8552C46.9044 12.1288 49.4171 10.0491 52.2614 9.55976V9.55976ZM52.7849 12.8803C51.8426 13.125 50.9701 13.6668 50.342 14.4183C48.6668 16.4106 48.7366 19.6612 50.5339 21.5662C51.5983 22.7022 53.256 23.2614 54.7916 22.9468C56.1526 22.6847 57.3741 21.7759 58.0371 20.5525C59.1713 18.4554 58.8398 15.5892 57.06 13.9639C55.9258 12.9153 54.2681 12.4958 52.7849 12.8803Z" fill="#E4E7EC"/>
<path d="M67.9493 10.5732C69.956 9.3149 72.6257 8.96536 74.7894 10.0489C75.47 10.346 76.0283 10.8528 76.5693 11.3597C76.5867 10.8878 76.5693 10.3985 76.5867 9.90911C77.7558 9.92658 78.9249 9.90911 80.1115 9.92658V25.341C80.094 27.6655 79.5008 30.1297 77.8256 31.8249C75.9934 33.6949 73.1841 34.2717 70.6539 33.8872C67.9493 33.4852 65.5936 31.5103 64.5467 29.0112C65.5936 28.5043 66.6929 28.1024 67.7748 27.6305C68.3855 29.0636 69.6244 30.287 71.1774 30.5666C72.7304 30.8462 74.5277 30.4617 75.5397 29.1685C76.6216 27.8402 76.6216 26.0226 76.5693 24.3973C75.7666 25.1838 74.8418 25.8828 73.725 26.145C71.2996 26.8266 68.6298 25.9877 66.7627 24.3449C64.8782 22.7021 63.7614 20.1679 63.8661 17.6513C63.9185 14.8026 65.5238 12.0587 67.9493 10.5732V10.5732ZM71.5613 12.8102C70.4969 12.985 69.5023 13.5792 68.8218 14.4006C67.1815 16.358 67.1815 19.4863 68.8392 21.4088C69.7815 22.5448 71.2996 23.1739 72.7653 23.0166C74.1438 22.8768 75.4176 22.003 76.0981 20.7971C77.2498 18.7523 77.0578 15.9735 75.5049 14.1909C74.5451 13.0899 73.0096 12.5481 71.5613 12.8102V12.8102Z" fill="#E4E7EC"/>
<path d="M91.0012 11.4647C93.0951 9.50731 96.3232 8.8432 99.0104 9.87432C101.558 10.8355 103.181 13.2648 104.001 15.7639C100.214 17.3368 96.4454 18.8922 92.6588 20.4651C93.1823 21.4613 93.985 22.3701 95.0668 22.7371C96.5849 23.2789 98.3997 23.0866 99.6735 22.073C100.18 21.6885 100.581 21.1817 100.965 20.6923C101.924 21.339 102.884 21.9681 103.844 22.6148C102.483 24.6595 100.197 26.0926 97.7366 26.3198C95.0145 26.6519 92.1179 25.6033 90.3555 23.4711C87.4589 20.1156 87.7381 14.4881 91.0012 11.4647V11.4647ZM92.8682 14.6979C92.275 15.5542 92.0307 16.6028 92.0481 17.6339C94.5783 16.5853 97.1084 15.5367 99.6386 14.4707C99.2198 13.492 98.2077 12.8978 97.1782 12.7405C95.5205 12.4434 93.7931 13.3347 92.8682 14.6979V14.6979Z" fill="#E4E7EC"/>
</g>
<defs>
<clipPath id="clip0_2112_54372">
<rect width="104.001" height="34" fill="white"/>
</clipPath>
</defs>
</svg>
