<svg width="132" height="44" viewBox="0 0 132 44" fill="none" xmlns="http://www.w3.org/2000/svg">
<g clip-path="url(#clip0_2123_56460)">
<path d="M16.2575 0H17.4313C21.5066 0.0904672 25.5155 1.76411 28.3947 4.72691C27.3316 5.83513 26.2464 6.89812 25.2054 8.00635C23.5886 6.51364 21.6395 5.36018 19.5133 4.95308C16.3682 4.27457 12.9795 4.88523 10.3439 6.71719C7.46461 8.63962 5.51557 11.8964 5.09475 15.3794C4.62963 18.8172 5.58201 22.4359 7.77469 25.1046C9.87878 27.7056 13.0903 29.334 16.4125 29.4471C19.5133 29.628 22.7469 28.6555 25.006 26.439C26.7779 24.8785 27.5974 22.5037 27.8632 20.1968C24.1866 20.1968 20.5099 20.2194 16.8333 20.1968V15.5377H32.315C33.1123 20.5361 31.9606 26.1676 28.2397 29.7411C25.7591 32.2742 22.3261 33.7669 18.8267 34.0609C15.438 34.4002 11.9386 33.7443 8.9264 32.0706C5.31623 30.103 2.43696 26.7783 1.01947 22.8656C-0.309431 19.2695 -0.33158 15.1985 0.908724 11.5798C2.03829 8.27775 4.20882 5.36018 6.9995 3.32467C9.67944 1.31177 12.9352 0.203551 16.2575 0Z" fill="#E4E7EC"/>
<path d="M105.072 1.17651H109.812V33.4732C108.239 33.4732 106.645 33.4959 105.072 33.4506C105.094 22.7077 105.072 11.9421 105.072 1.17651V1.17651Z" fill="#E4E7EC"/>
<path d="M42.8596 12.3718C45.7832 11.8064 48.9504 12.4396 51.3646 14.2263C53.5573 15.8095 55.0855 18.2973 55.5506 21.0113C56.1486 24.155 55.3956 27.5928 53.4022 30.0806C51.2539 32.8624 47.7323 34.3551 44.2993 34.129C41.1542 33.948 38.0978 32.3422 36.2373 29.7187C34.1332 26.8238 33.6238 22.8433 34.7755 19.4508C35.9272 15.8095 39.183 13.0277 42.8596 12.3718V12.3718ZM43.5241 16.6689C42.3281 16.9856 41.2207 17.6867 40.4233 18.6818C38.2749 21.3053 38.4078 25.5799 40.7777 28.0225C42.1288 29.4247 44.1664 30.0806 46.049 29.6961C47.7987 29.3795 49.327 28.1808 50.1686 26.5976C51.6304 23.9062 51.2096 20.1971 48.9726 18.0938C47.5329 16.7368 45.4289 16.1714 43.5241 16.6689Z" fill="#E4E7EC"/>
<path d="M66.3332 12.3715C69.6775 11.7156 73.332 12.6655 75.8348 15.0629C79.9101 18.7947 80.353 25.7833 76.8757 30.0805C74.7717 32.7945 71.3608 34.2872 67.9943 34.1289C64.7828 34.0384 61.6156 32.41 59.7108 29.7186C57.5624 26.7558 57.0973 22.6848 58.3155 19.2244C59.5336 15.6962 62.723 13.0048 66.3332 12.3715V12.3715ZM66.9976 16.6687C65.8016 16.9853 64.6942 17.6864 63.8968 18.659C61.7706 21.2373 61.8592 25.444 64.1405 27.9092C65.4915 29.3793 67.5956 30.1031 69.5447 29.696C71.2722 29.3567 72.8226 28.1807 73.6642 26.5975C75.1039 23.8835 74.6831 20.1743 72.4239 18.0709C70.9843 16.7139 68.8802 16.1711 66.9976 16.6687Z" fill="#E4E7EC"/>
<path d="M86.2479 13.6832C88.795 12.0548 92.1837 11.6025 94.9301 13.0047C95.7939 13.3892 96.5026 14.0451 97.1892 14.701C97.2113 14.0903 97.1892 13.4571 97.2113 12.8238C98.6953 12.8464 100.179 12.8238 101.685 12.8464V32.7944C101.663 35.8024 100.91 38.9914 98.7839 41.1852C96.4583 43.6052 92.8924 44.3515 89.6809 43.854C86.2479 43.3338 83.2579 40.7781 81.929 37.5439C83.2579 36.888 84.6533 36.3678 86.0265 35.7572C86.8016 37.6118 88.3742 39.1949 90.3454 39.5568C92.3166 39.9187 94.5978 39.4211 95.8825 37.7474C97.2556 36.0286 97.2556 33.6764 97.1892 31.5731C96.1704 32.5908 94.9965 33.4955 93.579 33.8348C90.5004 34.7168 87.1117 33.6312 84.7419 31.5052C82.3498 29.3793 80.9323 26.0998 81.0652 22.843C81.1317 19.1565 83.1693 15.6056 86.2479 13.6832V13.6832ZM90.8326 16.5782C89.4816 16.8043 88.2191 17.5733 87.3553 18.6363C85.2734 21.1694 85.2734 25.2178 87.3775 27.7056C88.5735 29.1757 90.5004 29.9899 92.3609 29.7864C94.1106 29.6054 95.7274 28.4746 96.5912 26.914C98.053 24.2679 97.8094 20.6718 95.8382 18.3649C94.62 16.94 92.6709 16.2389 90.8326 16.5782V16.5782Z" fill="#E4E7EC"/>
<path d="M115.499 14.8366C118.157 12.3036 122.254 11.4441 125.665 12.7785C128.898 14.0224 130.958 17.1662 131.999 20.4004C127.193 22.4359 122.409 24.4488 117.603 26.4843C118.267 27.7734 119.286 28.9495 120.659 29.4245C122.586 30.1256 124.89 29.8768 126.506 28.565C127.149 28.0675 127.658 27.4116 128.145 26.7783C129.364 27.6151 130.582 28.4293 131.8 29.2661C130.072 31.9123 127.171 33.7669 124.048 34.0609C120.593 34.4906 116.916 33.1336 114.679 30.3744C111.003 26.0319 111.357 18.7493 115.499 14.8366V14.8366ZM117.869 19.0207C117.116 20.129 116.806 21.486 116.828 22.8204C120.039 21.4634 123.251 20.1064 126.462 18.7267C125.931 17.4602 124.646 16.6912 123.339 16.4877C121.235 16.1032 119.042 17.2566 117.869 19.0207V19.0207Z" fill="#E4E7EC"/>
</g>
<defs>
<clipPath id="clip0_2123_56460">
<rect width="131.999" height="44.0001" fill="white"/>
</clipPath>
</defs>
</svg>
