<svg width="120" height="120" viewBox="0 0 120 120" fill="none" xmlns="http://www.w3.org/2000/svg">
<circle cx="60" cy="60" r="60" fill="#075FE4"/>
<path d="M83.5246 58.7718C83.5246 57.4729 83.0086 56.2273 82.0902 55.3089C81.1718 54.3904 79.9261 53.8745 78.6273 53.8745H78.0151C77.6904 53.8745 77.379 53.7455 77.1494 53.5159C76.9198 53.2863 76.7908 52.9748 76.7908 52.6501V46.5285C76.7908 42.1448 75.0494 37.9408 71.9497 34.8411C68.85 31.7414 64.6459 30 60.2623 30C55.8787 30 51.6746 31.7414 48.5749 34.8411C45.4752 37.9408 43.7338 42.1448 43.7338 46.5285V52.6501C43.7338 52.9748 43.6048 53.2863 43.3752 53.5159C43.1456 53.7455 42.8342 53.8745 42.5095 53.8745H41.8973C40.5985 53.8745 39.3528 54.3904 38.4344 55.3089C37.516 56.2273 37 57.4729 37 58.7718V84.4827C37 85.7816 37.516 87.0272 38.4344 87.9457C39.3528 88.8641 40.5985 89.3801 41.8973 89.3801H78.6273C79.9261 89.3801 81.1718 88.8641 82.0902 87.9457C83.0086 87.0272 83.5246 85.7816 83.5246 84.4827V58.7718ZM49.8555 46.5285C49.8555 43.7684 50.9519 41.1214 52.9036 39.1697C54.8552 37.2181 57.5022 36.1217 60.2623 36.1217C63.0224 36.1217 65.6694 37.2181 67.621 39.1697C69.5727 41.1214 70.6691 43.7684 70.6691 46.5285V52.6501C70.6691 52.9748 70.5401 53.2863 70.3105 53.5159C70.0809 53.7455 69.7695 53.8745 69.4448 53.8745H51.0798C50.7551 53.8745 50.4437 53.7455 50.2141 53.5159C49.9845 53.2863 49.8555 52.9748 49.8555 52.6501V46.5285ZM60.2623 82.0341C59.5792 82.0346 58.9114 81.8324 58.3432 81.4532C57.775 81.074 57.3321 80.5348 57.0705 79.9038C56.8089 79.2729 56.7403 78.5785 56.8735 77.9085C57.0066 77.2385 57.3355 76.6231 57.8185 76.1401C58.3015 75.6571 58.9169 75.3282 59.5869 75.1951C60.2568 75.0619 60.9513 75.1305 61.5822 75.3921C62.2132 75.6538 62.7524 76.0967 63.1316 76.6648C63.5108 77.233 63.7129 77.9008 63.7125 78.5839C63.7128 79.0371 63.6238 79.4859 63.4505 79.9046C63.2772 80.3233 63.0231 80.7038 62.7026 81.0243C62.3822 81.3447 62.0017 81.5988 61.583 81.7721C61.1643 81.9454 60.7155 82.0344 60.2623 82.0341V82.0341ZM67.405 72.974C67.0993 73.3527 66.6558 73.5946 66.1719 73.6464C65.6879 73.6983 65.2032 73.556 64.8242 73.2507C63.5367 72.1996 61.9256 71.6254 60.2635 71.6254C58.6014 71.6254 56.9904 72.1996 55.7029 73.2507C55.3226 73.5553 54.837 73.6964 54.3527 73.6429C53.8685 73.5894 53.4254 73.3457 53.1208 72.9655C52.8162 72.5852 52.6751 72.0996 52.7286 71.6153C52.7821 71.1311 53.0258 70.6879 53.406 70.3833C55.345 68.8012 57.7708 67.9371 60.2733 67.9371C62.7759 67.9371 65.2016 68.8012 67.1406 70.3833C67.5182 70.6909 67.7581 71.1358 67.8077 71.6202C67.8573 72.1047 67.7125 72.589 67.405 72.9667V72.974ZM71.4845 67.0727C71.1788 67.4514 70.7353 67.6933 70.2513 67.7452C69.7674 67.7971 69.2827 67.6547 68.9036 67.3494C66.4648 65.3564 63.4119 64.2677 60.2623 64.2677C57.1127 64.2677 54.0598 65.3564 51.621 67.3494C51.2417 67.6553 50.7565 67.798 50.272 67.7461C49.7875 67.6942 49.3435 67.452 49.0376 67.0727C48.7317 66.6935 48.5891 66.2082 48.6409 65.7238C48.6928 65.2393 48.9351 64.7953 49.3143 64.4894C52.4047 61.9654 56.2722 60.5867 60.2623 60.5867C64.2524 60.5867 68.1199 61.9654 71.2103 64.4894C71.5872 64.7954 71.8276 65.2381 71.879 65.7208C71.9304 66.2035 71.7885 66.687 71.4845 67.0654V67.0727Z" fill="white"/>
<rect x="44.4141" y="58.2872" width="31.6947" height="24.8638" fill="white"/>
</svg>
