<svg width="289" height="42" viewBox="0 0 289 42" fill="none" xmlns="http://www.w3.org/2000/svg">
<path d="M16.2363 32.0983H21.3617L26.4871 9.90161H21.3617L16.2363 32.0983Z" fill="#075FE4"/>
<path d="M11.3903 9.98657L0.378906 20.9979L0.380956 21L0.378906 21.002L11.3903 32.0134L14.7299 28.6737L7.05624 21L14.7299 13.3263L11.3903 9.98657Z" fill="#075FE4"/>
<path d="M3.71868 17.6626L0.380859 21.0005L3.71879 24.3383L7.05661 21.0004L3.71868 17.6626Z" fill="#075FE4"/>
<path d="M42.3784 20.9979L31.367 9.98657L28.0273 13.3263L35.7011 21L28.0273 28.6737L31.367 32.0134L42.3784 21.002L42.3763 21L42.3784 20.9979Z" fill="#075FE4"/>
<path d="M39.039 17.6618L35.7012 20.9998L39.0391 24.3376L42.3769 20.9996L39.039 17.6618Z" fill="#075FE4"/>
<path d="M54.4909 32V9.6H62.3309L66.2029 29.12H66.7789L70.6509 9.6H78.4909V32H74.3949V12.704H73.8189L69.9789 32H63.0029L59.1629 12.704H58.5869V32H54.4909ZM87.7657 32.448C86.635 32.448 85.6217 32.256 84.7257 31.872C83.8297 31.4667 83.115 30.8907 82.5817 30.144C82.0697 29.376 81.8137 28.448 81.8137 27.36C81.8137 26.272 82.0697 25.3653 82.5817 24.64C83.115 23.8933 83.8403 23.3387 84.7577 22.976C85.6963 22.592 86.763 22.4 87.9577 22.4H92.3097V21.504C92.3097 20.7573 92.075 20.1493 91.6057 19.68C91.1363 19.1893 90.3897 18.944 89.3657 18.944C88.363 18.944 87.6163 19.1787 87.1257 19.648C86.635 20.096 86.315 20.6827 86.1657 21.408L82.4537 20.16C82.7097 19.3493 83.115 18.6133 83.6697 17.952C84.2457 17.2693 85.003 16.7253 85.9417 16.32C86.9017 15.8933 88.0643 15.68 89.4297 15.68C91.5203 15.68 93.1737 16.2027 94.3897 17.248C95.6057 18.2933 96.2137 19.808 96.2137 21.792V27.712C96.2137 28.352 96.5123 28.672 97.1097 28.672H98.3897V32H95.7017C94.9123 32 94.2617 31.808 93.7497 31.424C93.2377 31.04 92.9817 30.528 92.9817 29.888V29.856H92.3737C92.2883 30.112 92.0963 30.4533 91.7977 30.88C91.499 31.2853 91.0297 31.648 90.3897 31.968C89.7497 32.288 88.875 32.448 87.7657 32.448ZM88.4697 29.184C89.6003 29.184 90.5177 28.8747 91.2217 28.256C91.947 27.616 92.3097 26.7733 92.3097 25.728V25.408H88.2457C87.499 25.408 86.9123 25.568 86.4857 25.888C86.059 26.208 85.8457 26.656 85.8457 27.232C85.8457 27.808 86.0697 28.2773 86.5177 28.64C86.9657 29.0027 87.6163 29.184 88.4697 29.184ZM106.261 32C105.216 32 104.363 31.68 103.701 31.04C103.061 30.3787 102.741 29.504 102.741 28.416V19.456H98.7734V16.128H102.741V11.2H106.773V16.128H111.125V19.456H106.773V27.712C106.773 28.352 107.072 28.672 107.669 28.672H110.741V32H106.261ZM116.699 32C115.654 32 114.8 31.68 114.139 31.04C113.499 30.3787 113.179 29.504 113.179 28.416V19.456H109.211V16.128H113.179V11.2H117.211V16.128H121.563V19.456H117.211V27.712C117.211 28.352 117.51 28.672 118.107 28.672H121.179V32H116.699ZM132.57 32V28.288H135.514V13.312H132.57V9.6H144.09C145.455 9.6 146.639 9.83467 147.642 10.304C148.666 10.752 149.455 11.4027 150.01 12.256C150.586 13.088 150.874 14.0907 150.874 15.264V15.584C150.874 16.608 150.682 17.4507 150.298 18.112C149.914 18.752 149.455 19.2533 148.922 19.616C148.41 19.9573 147.919 20.2027 147.45 20.352V20.928C147.919 21.056 148.431 21.3013 148.986 21.664C149.54 22.0053 150.01 22.5067 150.394 23.168C150.799 23.8293 151.002 24.6933 151.002 25.76V26.08C151.002 27.3173 150.714 28.384 150.138 29.28C149.562 30.1547 148.762 30.8267 147.738 31.296C146.735 31.7653 145.562 32 144.218 32H132.57ZM139.738 28.16H143.706C144.623 28.16 145.359 27.936 145.914 27.488C146.49 27.04 146.778 26.4 146.778 25.568V25.248C146.778 24.416 146.5 23.776 145.946 23.328C145.391 22.88 144.644 22.656 143.706 22.656H139.738V28.16ZM139.738 18.816H143.642C144.516 18.816 145.231 18.592 145.786 18.144C146.362 17.696 146.65 17.0773 146.65 16.288V15.968C146.65 15.1573 146.372 14.5387 145.818 14.112C145.263 13.664 144.538 13.44 143.642 13.44H139.738V18.816ZM161.82 32.448C160.241 32.448 158.844 32.1173 157.628 31.456C156.433 30.7733 155.494 29.824 154.812 28.608C154.15 27.3707 153.82 25.92 153.82 24.256V23.872C153.82 22.208 154.15 20.768 154.812 19.552C155.473 18.3147 156.401 17.3653 157.596 16.704C158.79 16.0213 160.177 15.68 161.756 15.68C163.313 15.68 164.668 16.032 165.82 16.736C166.972 17.4187 167.868 18.3787 168.508 19.616C169.148 20.832 169.468 22.2507 169.468 23.872V25.248H157.916C157.958 26.336 158.364 27.2213 159.132 27.904C159.9 28.5867 160.838 28.928 161.948 28.928C163.078 28.928 163.91 28.6827 164.444 28.192C164.977 27.7013 165.382 27.1573 165.66 26.56L168.956 28.288C168.657 28.8427 168.22 29.4507 167.644 30.112C167.089 30.752 166.342 31.3067 165.404 31.776C164.465 32.224 163.27 32.448 161.82 32.448ZM157.948 22.24H165.372C165.286 21.3227 164.913 20.5867 164.252 20.032C163.612 19.4773 162.769 19.2 161.724 19.2C160.636 19.2 159.772 19.4773 159.132 20.032C158.492 20.5867 158.097 21.3227 157.948 22.24ZM172.288 24.128V23.616C172.288 21.952 172.619 20.5333 173.28 19.36C173.942 18.1653 174.816 17.2587 175.904 16.64C177.014 16 178.219 15.68 179.52 15.68C180.971 15.68 182.07 15.936 182.816 16.448C183.563 16.96 184.107 17.4933 184.448 18.048H185.024V16.128H188.992V34.816C188.992 35.904 188.672 36.768 188.032 37.408C187.392 38.0693 186.539 38.4 185.472 38.4H174.848V34.88H184.064C184.662 34.88 184.96 34.56 184.96 33.92V29.792H184.384C184.171 30.1333 183.872 30.4853 183.488 30.848C183.104 31.1893 182.592 31.4773 181.952 31.712C181.312 31.9467 180.502 32.064 179.52 32.064C178.219 32.064 177.014 31.7547 175.904 31.136C174.816 30.496 173.942 29.5893 173.28 28.416C172.619 27.2213 172.288 25.792 172.288 24.128ZM180.672 28.544C181.91 28.544 182.944 28.1493 183.776 27.36C184.608 26.5707 185.024 25.4613 185.024 24.032V23.712C185.024 22.2613 184.608 21.152 183.776 20.384C182.966 19.5947 181.931 19.2 180.672 19.2C179.435 19.2 178.4 19.5947 177.568 20.384C176.736 21.152 176.32 22.2613 176.32 23.712V24.032C176.32 25.4613 176.736 26.5707 177.568 27.36C178.4 28.1493 179.435 28.544 180.672 28.544ZM193.463 32V16.128H197.431V18.208H198.007C198.263 17.6533 198.743 17.1307 199.447 16.64C200.151 16.128 201.217 15.872 202.647 15.872C203.884 15.872 204.961 16.16 205.879 16.736C206.817 17.2907 207.543 18.0693 208.055 19.072C208.567 20.0533 208.823 21.2053 208.823 22.528V32H204.791V22.848C204.791 21.6533 204.492 20.7573 203.895 20.16C203.319 19.5627 202.487 19.264 201.399 19.264C200.161 19.264 199.201 19.68 198.519 20.512C197.836 21.3227 197.495 22.464 197.495 23.936V32H193.463ZM220.733 32.448C219.155 32.448 217.736 32.128 216.477 31.488C215.219 30.848 214.227 29.92 213.501 28.704C212.776 27.488 212.413 26.0267 212.413 24.32V23.808C212.413 22.1013 212.776 20.64 213.501 19.424C214.227 18.208 215.219 17.28 216.477 16.64C217.736 16 219.155 15.68 220.733 15.68C222.312 15.68 223.731 16 224.989 16.64C226.248 17.28 227.24 18.208 227.965 19.424C228.691 20.64 229.053 22.1013 229.053 23.808V24.32C229.053 26.0267 228.691 27.488 227.965 28.704C227.24 29.92 226.248 30.848 224.989 31.488C223.731 32.128 222.312 32.448 220.733 32.448ZM220.733 28.864C221.971 28.864 222.995 28.4693 223.805 27.68C224.616 26.8693 225.021 25.7173 225.021 24.224V23.904C225.021 22.4107 224.616 21.2693 223.805 20.48C223.016 19.6693 221.992 19.264 220.733 19.264C219.496 19.264 218.472 19.6693 217.661 20.48C216.851 21.2693 216.445 22.4107 216.445 23.904V24.224C216.445 25.7173 216.851 26.8693 217.661 27.68C218.472 28.4693 219.496 28.864 220.733 28.864ZM240.231 32.448C238.695 32.448 237.298 32.128 236.039 31.488C234.802 30.848 233.82 29.92 233.095 28.704C232.37 27.488 232.007 26.016 232.007 24.288V23.84C232.007 22.112 232.37 20.64 233.095 19.424C233.82 18.208 234.802 17.28 236.039 16.64C237.298 16 238.695 15.68 240.231 15.68C241.746 15.68 243.047 15.9467 244.135 16.48C245.223 17.0133 246.098 17.7493 246.759 18.688C247.442 19.6053 247.89 20.6507 248.103 21.824L244.199 22.656C244.114 22.016 243.922 21.44 243.623 20.928C243.324 20.416 242.898 20.0107 242.343 19.712C241.81 19.4133 241.138 19.264 240.327 19.264C239.516 19.264 238.78 19.4453 238.119 19.808C237.479 20.1493 236.967 20.672 236.583 21.376C236.22 22.0587 236.039 22.9013 236.039 23.904V24.224C236.039 25.2267 236.22 26.08 236.583 26.784C236.967 27.4667 237.479 27.9893 238.119 28.352C238.78 28.6933 239.516 28.864 240.327 28.864C241.543 28.864 242.46 28.5547 243.079 27.936C243.719 27.296 244.124 26.464 244.295 25.44L248.199 26.368C247.922 27.4987 247.442 28.5333 246.759 29.472C246.098 30.3893 245.223 31.1147 244.135 31.648C243.047 32.1813 241.746 32.448 240.231 32.448ZM251.525 32V9.6H255.557V18.08H256.133C256.304 17.7387 256.57 17.3973 256.933 17.056C257.296 16.7147 257.776 16.4373 258.373 16.224C258.992 15.9893 259.77 15.872 260.709 15.872C261.946 15.872 263.024 16.16 263.941 16.736C264.88 17.2907 265.605 18.0693 266.117 19.072C266.629 20.0533 266.885 21.2053 266.885 22.528V32H262.853V22.848C262.853 21.6533 262.554 20.7573 261.957 20.16C261.381 19.5627 260.549 19.264 259.461 19.264C258.224 19.264 257.264 19.68 256.581 20.512C255.898 21.3227 255.557 22.464 255.557 23.936V32H251.525ZM278.476 32.448C276.897 32.448 275.5 32.1173 274.284 31.456C273.089 30.7733 272.151 29.824 271.468 28.608C270.807 27.3707 270.476 25.92 270.476 24.256V23.872C270.476 22.208 270.807 20.768 271.468 19.552C272.129 18.3147 273.057 17.3653 274.252 16.704C275.447 16.0213 276.833 15.68 278.412 15.68C279.969 15.68 281.324 16.032 282.476 16.736C283.628 17.4187 284.524 18.3787 285.164 19.616C285.804 20.832 286.124 22.2507 286.124 23.872V25.248H274.572C274.615 26.336 275.02 27.2213 275.788 27.904C276.556 28.5867 277.495 28.928 278.604 28.928C279.735 28.928 280.567 28.6827 281.1 28.192C281.633 27.7013 282.039 27.1573 282.316 26.56L285.612 28.288C285.313 28.8427 284.876 29.4507 284.3 30.112C283.745 30.752 282.999 31.3067 282.06 31.776C281.121 32.224 279.927 32.448 278.476 32.448ZM274.604 22.24H282.028C281.943 21.3227 281.569 20.5867 280.908 20.032C280.268 19.4773 279.425 19.2 278.38 19.2C277.292 19.2 276.428 19.4773 275.788 20.032C275.148 20.5867 274.753 21.3227 274.604 22.24Z" fill="white"/>
</svg>
