<svg width="369" height="326" viewBox="0 0 369 326" fill="none" xmlns="http://www.w3.org/2000/svg">
<path d="M336.051 179.386C336.051 233.394 306.09 281.467 263.966 305.503C263.966 305.503 263.669 305.8 263.373 305.8C258.033 309.064 251.21 312.032 248.244 313.516H247.947C245.574 314.406 231.335 320.341 228.962 320.341C228.665 320.341 228.369 320.341 228.369 320.637C228.072 320.637 227.775 320.637 227.479 320.934C221.249 322.715 212.35 324.198 210.57 324.495C210.57 325.385 183.278 328.056 160.14 323.011C157.173 323.011 138.188 317.967 121.576 309.658C74.7056 285.325 42.3711 236.065 42.3711 179.386C42.3711 98.374 108.227 32.793 189.211 32.793C270.492 32.793 336.051 98.374 336.051 179.386Z" fill="#2D343F"/>
<path d="M233.707 239.329V319.154C233.41 319.154 229.554 320.638 229.257 320.638C228.961 320.638 228.664 320.638 228.664 320.934C228.367 320.934 228.071 320.935 227.774 321.231C221.545 323.012 212.645 324.495 210.865 324.792V239.329H233.707Z" fill="#4988FD"/>
<path d="M233.707 239.329V319.154C233.41 319.154 229.554 320.638 229.257 320.638C228.961 320.638 228.664 320.638 228.664 320.934C228.367 320.934 228.071 320.935 227.774 321.231C221.545 323.012 212.645 324.495 210.865 324.792V239.329H233.707Z" fill="#D5DAE8"/>
<path d="M254.473 239.329V310.845C252.99 311.735 250.32 312.626 248.243 313.813H247.947C244.09 315.593 239.641 317.374 231.928 319.748V239.626H254.473V239.329Z" fill="#2767F4"/>
<path d="M254.473 239.329V310.845C252.99 311.735 250.32 312.626 248.243 313.813H247.947C244.09 315.593 239.641 317.374 231.928 319.748V239.626H254.473V239.329Z" fill="#5D6C83"/>
<path opacity="0.1" d="M254.473 270.19V305.8C251.506 307.284 249.133 308.471 249.133 308.471H248.837C243.794 311.142 236.081 313.515 232.818 314.406C232.521 314.406 232.224 314.702 231.928 314.702V306.987C235.487 296.304 241.42 285.325 249.43 276.125C250.913 274.048 252.693 271.971 254.473 270.19Z" fill="#062C78"/>
<path d="M347.324 149.711V240.516H276.426V240.812H134.332V77.6017H269.306C271.086 77.3049 272.866 77.3049 274.943 77.3049C277.316 77.3049 279.392 77.3049 281.765 77.6017C284.732 77.8984 287.402 78.1952 290.071 78.7887C304.014 81.7561 316.473 88.8781 325.966 98.374C339.315 111.728 347.324 129.829 347.324 149.711Z" fill="#434D5C"/>
<path d="M320.032 174.638C328.932 174.638 336.348 167.516 336.348 158.317C336.348 149.118 328.932 141.996 320.032 141.996C311.133 141.996 303.717 149.118 303.717 158.317C303.717 167.516 310.836 174.638 320.032 174.638Z" fill="#737C90"/>
<path d="M322.7 172.561C331.896 172.561 339.609 165.439 339.609 156.24C339.609 147.041 332.193 139.919 322.7 139.919C313.504 139.919 305.791 147.041 305.791 156.24C305.791 165.439 313.207 172.561 322.7 172.561Z" fill="#D5DAE8"/>
<path d="M323.589 172.561C332.488 172.561 339.905 165.439 339.905 156.24C339.905 147.041 332.488 139.919 323.589 139.919C314.69 139.919 307.273 147.041 307.273 156.24C307.273 165.439 314.393 172.561 323.589 172.561Z" fill="#D4D9E8"/>
<path d="M323.593 162.472C327.153 162.472 329.822 159.801 329.822 156.24C329.822 152.679 327.153 150.008 323.593 150.008C320.033 150.008 317.363 152.679 317.363 156.24C317.363 159.801 320.033 162.472 323.593 162.472Z" fill="#CED7E2"/>
<path d="M204.933 142.589V240.813H60.1699V142.589C60.1699 111.728 82.1218 85.614 110.896 79.0855C115.643 77.8986 120.389 77.6018 125.432 77.6018H140.265C172.896 77.6018 199.594 101.342 204.637 132.5C204.637 135.467 204.933 139.028 204.933 142.589Z" fill="#303B4A"/>
<path d="M204.637 132.5C199.594 101.342 172.599 77.6018 140.265 77.6018H125.432C120.389 77.6018 115.643 77.8986 110.896 79.0855C81.8251 85.614 60.1699 111.431 60.1699 142.589V240.813H204.933V142.589C204.933 139.028 204.637 135.467 204.637 132.5ZM199.001 234.878H66.1029V142.589C66.1029 115.289 85.3849 90.9554 112.38 85.0205C116.236 84.1302 120.093 83.8335 125.432 83.8335H140.265C169.336 83.8335 193.958 104.606 198.704 133.39C198.704 134.577 198.704 136.061 198.704 137.545C198.704 139.325 198.704 141.106 198.704 142.886V234.878H199.001Z" fill="#5D6C83"/>
<path d="M160.14 323.308C159.546 323.308 158.953 323.011 158.36 323.011C156.283 322.715 154.207 322.121 152.13 321.528C150.647 321.231 149.46 320.637 147.977 320.341C147.384 320.044 146.79 320.044 146.197 319.747C145.604 319.45 145.011 319.45 144.121 319.154C136.408 316.78 128.992 313.516 121.872 309.955C114.456 297.491 110.303 282.357 103.183 261.288C103.183 260.991 103.183 260.991 102.887 260.695C102.887 260.695 103.48 260.695 104.963 261.288C105.853 261.882 107.336 262.475 109.116 263.662C112.676 266.036 118.312 270.19 126.618 277.016C137.001 285.621 145.9 298.381 152.13 308.768C154.8 313.516 157.173 317.67 158.953 320.934C159.546 321.528 159.843 322.418 160.14 323.308Z" fill="#5D6C83"/>
<path d="M147.973 320.044C147.38 319.747 146.787 319.747 146.193 319.451C145.6 319.154 145.007 319.154 144.117 318.857C130.471 291.556 115.046 274.048 106.146 263.959C105.256 262.772 104.366 261.882 103.476 260.991C103.476 260.695 103.476 260.695 103.18 260.398C103.18 260.398 103.773 260.398 105.256 260.991C106.146 261.585 107.629 262.178 109.409 263.365C118.605 274.048 134.328 292.15 147.973 320.044Z" fill="#7587A0"/>
<path d="M286.508 256.243C286.508 256.243 286.212 256.837 285.618 258.024C282.059 264.552 270.193 286.215 264.557 305.207C264.26 305.207 264.26 305.503 263.963 305.503C263.963 305.503 263.667 305.8 263.37 305.8C258.03 309.064 251.207 312.032 248.241 313.516H247.944C239.045 317.67 229.552 320.341 228.959 320.341C233.409 305.8 239.935 292.743 249.131 281.764C250.911 279.686 252.691 277.609 254.471 275.829C254.767 275.532 255.064 275.235 255.361 274.938C263.073 267.223 271.083 262.178 278.796 258.914C279.686 258.617 280.575 258.024 281.465 257.727C282.355 257.134 283.839 256.837 285.322 256.243C285.915 256.54 286.212 256.243 286.508 256.243Z" fill="#3D4A5F"/>
<path d="M286.211 255.65C286.211 255.65 285.914 255.947 285.618 256.837C285.618 257.134 285.321 257.134 285.321 257.43C269.896 271.081 257.733 293.93 250.02 312.922C249.427 313.219 248.834 313.516 248.24 313.812H247.944C247.35 314.109 246.46 314.406 245.867 314.703C246.164 314.109 246.46 313.812 246.46 313.812C250.317 304.316 260.7 277.312 278.795 259.211C279.388 258.617 279.982 258.024 280.575 257.43C282.651 256.837 284.431 256.243 286.211 255.65Z" fill="#5D6C83"/>
<path d="M204.203 230.427V240.813H6.33964C3.37317 240.813 1 238.439 1 235.768C1 232.801 3.37317 230.427 6.33964 230.427H204.203Z" fill="#5D6C83"/>
<path d="M328.635 77.0085L328.635 155.053C328.635 157.427 326.855 159.207 324.482 159.207C322.109 159.207 320.329 157.427 320.329 155.053L320.329 77.0085L328.635 77.0085Z" fill="#8895AA"/>
<path d="M368.383 74.338C369.569 75.2283 368.976 77.3055 367.196 77.3055L328.929 77.3055L320.029 77.3055L320.029 45.2568L367.196 45.2568C368.679 45.2568 369.569 47.0373 368.383 48.2243L355.924 58.6104C354.144 60.0942 354.144 62.7649 355.924 64.2486L368.383 74.338Z" fill="#075FE4"/>
<path d="M314.158 289.984C319.925 289.984 324.6 285.307 324.6 279.538C324.6 273.769 319.925 269.092 314.158 269.092C308.39 269.092 303.715 273.769 303.715 279.538C303.715 285.307 308.39 289.984 314.158 289.984Z" fill="#5D6C83"/>
<path d="M25.9475 286.666C33.2622 286.666 39.1919 280.735 39.1919 273.418C39.1919 266.1 33.2622 260.169 25.9475 260.169C18.6328 260.169 12.7031 266.1 12.7031 273.418C12.7031 280.735 18.6328 286.666 25.9475 286.666Z" fill="#5D6C83"/>
<g filter="url(#filter0_d_2134_56782)">
<rect x="51.877" y="138.354" width="133.67" height="92.0721" rx="9.31787" fill="#337FF2"/>
</g>
<path d="M183.671 141.817L129.343 182.062C123.025 186.742 114.392 186.742 108.075 182.062L53.7461 141.817C55.3805 139.71 57.9363 138.354 60.8085 138.354H176.609C179.481 138.354 182.037 139.71 183.671 141.817Z" fill="#075FE4"/>
<path d="M316.804 31.0833L305.791 2" stroke="#5D6C83" stroke-width="5.82367"/>
<path d="M309.75 41.9514L287.504 34.24" stroke="#5D6C83" stroke-width="5.82367"/>
<path d="M329.816 26.6764L332.239 3.98267" stroke="#5D6C83" stroke-width="5.82367"/>
<defs>
<filter id="filter0_d_2134_56782" x="0.628677" y="112.73" width="236.166" height="194.569" filterUnits="userSpaceOnUse" color-interpolation-filters="sRGB">
<feFlood flood-opacity="0" result="BackgroundImageFix"/>
<feColorMatrix in="SourceAlpha" type="matrix" values="0 0 0 0 0 0 0 0 0 0 0 0 0 0 0 0 0 0 127 0" result="hardAlpha"/>
<feOffset dy="25.6241"/>
<feGaussianBlur stdDeviation="25.6241"/>
<feColorMatrix type="matrix" values="0 0 0 0 0.397708 0 0 0 0 0.47749 0 0 0 0 0.575 0 0 0 0.27 0"/>
<feBlend mode="normal" in2="BackgroundImageFix" result="effect1_dropShadow_2134_56782"/>
<feBlend mode="normal" in="SourceGraphic" in2="effect1_dropShadow_2134_56782" result="shape"/>
</filter>
</defs>
</svg>
