<svg width="137" height="32" viewBox="0 0 137 32" fill="none" xmlns="http://www.w3.org/2000/svg">
<g clip-path="url(#clip0_2112_54375)">
<path d="M53.5508 11.4647H57.854V24.826H53.5508V11.4647ZM58.7593 11.4647H62.9032V13.2946H62.9829C63.9825 11.8597 65.2746 11.0833 67.1528 11.0833C70.111 11.0833 71.8558 13.1758 71.8558 16.1508V24.8389H67.5526V17.0067C67.5526 15.5983 66.8334 14.638 65.4339 14.638C64.0085 14.638 63.0625 15.8087 63.0625 17.454V24.8389H58.7593V11.4647Z" fill="#E4E7EC"/>
<path d="M55.7074 10.4512C57.1347 10.4512 58.2917 9.30797 58.2917 7.89777C58.2917 6.48756 57.1347 5.34436 55.7074 5.34436C54.2801 5.34436 53.123 6.48756 53.123 7.89777C53.123 9.30797 54.2801 10.4512 55.7074 10.4512Z" fill="#E4E7EC"/>
<path d="M102.123 11.267C102.003 11.2542 101.857 11.2542 101.697 11.2542C100.058 11.2542 98.9523 11.9648 97.9934 13.5442H97.9137V11.4645H93.7966V24.826H98.0998V18.823C98.0998 16.0455 99.6586 14.7559 102.123 14.9791V11.267V11.267ZM123.253 16.4012C121.534 16.0848 120.003 15.9531 120.003 15.0193C120.003 14.1898 120.815 13.7948 121.881 13.7948C123.067 13.7948 123.893 14.1633 124.053 15.3605H128.009C127.796 12.7284 125.745 11.0831 121.908 11.0831C118.71 11.0831 116.072 12.5445 116.072 15.3614C116.072 18.4937 118.577 19.1128 120.936 19.5079C122.734 19.8235 124.373 19.9551 124.373 21.1532C124.373 22.0083 123.561 22.4829 122.255 22.4829C120.962 22.4829 120.096 21.9425 119.829 20.8368H115.725C116.033 23.5886 118.471 25.2467 122.281 25.2467C125.825 25.2467 128.436 23.7331 128.436 20.8111C128.423 17.388 125.625 16.7963 123.253 16.4012V16.4012ZM109.038 22.1673C107.266 22.1673 106.267 21.048 106.001 19.2445H115.712C115.739 16.5329 114.953 14.2027 113.341 12.7413C112.182 11.7014 110.65 11.0703 108.718 11.0703C104.601 11.0703 101.777 14.124 101.777 18.1123C101.777 22.1537 104.522 25.2074 108.985 25.2074C110.703 25.2074 112.076 24.7601 113.208 23.9828C114.394 23.1799 115.193 22.022 115.473 20.824H111.276C110.917 21.6671 110.184 22.1665 109.038 22.1665V22.1673ZM108.798 14.0975C110.197 14.0975 111.196 15.1108 111.356 16.7039H106.027C106.32 15.1245 107.173 14.0975 108.798 14.0975ZM136.004 21.6799C135.804 21.6928 135.537 21.6928 135.284 21.6928C134.365 21.6928 133.778 21.4294 133.778 20.3895V14.124H136.004V11.4637H133.778V7.24011H129.582V11.4653H128.263V14.1248H129.582V21.2985C129.582 24.1683 131.38 24.9841 133.885 24.9841C134.844 24.9841 135.564 24.9183 136.004 24.8268V21.6807V21.6799ZM79.5413 21.6799C79.3682 21.6799 79.1682 21.6928 78.9821 21.6928C78.0622 21.6928 77.4762 21.4294 77.4762 20.3895V14.124H79.5413V11.4637H77.477V7.24011H73.2795V11.4653H71.8809V14.1248H73.2795V21.2985C73.2795 24.1683 75.078 24.9841 77.5827 24.9841C78.436 24.9841 79.1024 24.9319 79.5413 24.8525V21.6807V21.6799Z" fill="#E4E7EC"/>
<path d="M79.3281 18.1256C79.3281 14.1372 82.1522 11.0835 86.2685 11.0835C88.201 11.0835 89.733 11.7155 90.8927 12.7553C92.5042 14.2167 93.2901 16.5333 93.2633 19.2578H83.5516C83.8174 21.0613 84.817 22.1806 86.5887 22.1806C87.7215 22.1806 88.4676 21.6804 88.8268 20.8509H93.0235C92.731 22.0489 91.9443 23.194 90.7586 24.0098C89.6265 24.7863 88.2539 25.2343 86.5358 25.2343C82.0725 25.2207 79.3273 22.167 79.3273 18.1256H79.3281ZM88.9203 16.7172C88.7602 15.1249 87.7614 14.1107 86.3627 14.1107C84.7235 14.1107 83.884 15.1249 83.5915 16.7172H88.9203ZM38.4141 6.17334H45.8876C48.1793 6.17334 49.8714 6.80528 51.0441 7.89813C52.2558 9.01667 52.9482 10.6098 52.9482 12.4919C52.9482 16.0724 50.4435 18.6001 46.5531 18.6001H42.7701V24.8392H38.4141V6.17334ZM46.0745 14.941C47.7665 14.941 48.7125 13.9533 48.7125 12.4662C48.7125 10.9791 47.7397 10.071 46.0745 10.071H42.7701V14.9547H46.0745V14.941Z" fill="#E4E7EC"/>
<path d="M16.1891 0C7.23651 0 0.00195312 7.16089 0.00195312 15.9936C0.00195312 22.7731 4.26532 28.5649 10.2873 30.8943C10.1411 29.6312 10.0208 27.6824 10.341 26.3013C10.6336 25.0503 12.2329 18.3495 12.2329 18.3495C12.2329 18.3495 11.7534 17.3891 11.7534 15.9807C11.7534 13.7565 13.0586 12.0976 14.684 12.0976C16.0696 12.0976 16.736 13.1238 16.736 14.3483C16.736 15.7174 15.8567 17.7706 15.3902 19.68C15.0034 21.2723 16.2029 22.5755 17.7877 22.5755C20.6662 22.5755 22.8775 19.574 22.8775 15.2564C22.8775 11.4263 20.0933 8.75399 16.1094 8.75399C11.4999 8.75399 8.79525 12.1634 8.79525 15.6909C8.79525 17.0599 9.32837 18.5342 9.99396 19.3371C10.1272 19.4953 10.1402 19.6399 10.1012 19.7981C9.98096 20.2983 9.7014 21.3903 9.64776 21.6144C9.58112 21.9034 9.40802 21.9701 9.10163 21.8248C7.10323 20.8772 5.85088 17.9544 5.85088 15.6122C5.85088 10.5695 9.5543 5.93636 16.5491 5.93636C22.1583 5.93636 26.5281 9.88538 26.5281 15.1778C26.5281 20.6926 23.0108 25.129 18.1347 25.129C16.4955 25.129 14.9506 24.2859 14.4304 23.2862L13.4186 27.0906C13.0586 28.4854 12.0728 30.223 11.4064 31.2902C12.9253 31.7503 14.5239 32 16.2029 32C25.1425 32 32.39 24.8391 32.39 16.0064C32.3762 7.1609 25.1287 0 16.1891 0Z" fill="#E4E7EC"/>
</g>
<defs>
<clipPath id="clip0_2112_54375">
<rect width="136.002" height="32" fill="white" transform="translate(0.00195312)"/>
</clipPath>
</defs>
</svg>
