<svg width="168" height="40" viewBox="0 0 168 40" fill="none" xmlns="http://www.w3.org/2000/svg">
<path d="M18.0518 0.043141C15.8774 0.285438 12.6158 1.29191 10.7601 2.29837C5.77402 4.96364 2.39997 9.11998 0.712944 14.6555C0.375539 15.7366 -0.0181001 18.6814 0.000644636 20.0606C0.000644636 21.2721 0.375539 24.2356 0.600476 24.9439C0.712944 25.2794 0.956626 26.0808 1.16282 26.6959C1.50022 27.7396 3.13101 31.0199 3.41219 31.2436C3.46842 31.2995 3.76834 31.6723 4.04951 32.101C4.74306 33.1261 6.5613 34.9526 7.92967 35.9964C8.97937 36.7978 11.941 38.4939 12.3159 38.5125C12.4097 38.5125 12.4284 37.8043 12.3722 36.8724C12.241 34.8035 12.6346 31.9891 13.4781 29.1188C13.6281 28.6342 13.7405 28.0005 13.7405 27.721C13.7405 27.4414 13.8155 27.1432 13.9092 27.05C14.003 26.9382 14.1717 26.3977 14.2654 25.8385C14.3779 25.2794 14.5653 24.422 14.6965 23.9374C14.884 23.2105 14.8652 22.9309 14.6028 22.1481C14.2279 20.9553 14.2092 19.0169 14.584 18.085C15.465 15.867 16.4398 15.0283 18.0893 15.0283C20.0763 15.0283 21.0322 16.5194 20.6573 19.0169C20.4886 20.1538 20.02 21.9431 19.7201 22.5023C19.6451 22.67 19.5139 23.136 19.4577 23.5274C19.3827 23.9374 19.2327 24.5152 19.139 24.832C18.8766 25.5589 19.3827 26.9754 20.0575 27.5159C20.6948 28.0192 22.0257 28.1683 23.2441 27.8887C24.1064 27.7023 24.4625 27.4787 25.3623 26.6213C26.4307 25.5776 27.2367 24.3661 27.2367 23.7883C27.2367 23.6205 27.3305 23.3969 27.4429 23.2851C27.9678 22.7632 28.249 18.7 27.8553 16.9853C27.4242 15.1029 26.0933 13.2577 24.3688 12.1767C22.6443 11.077 19.0828 10.7601 16.8896 11.5057C15.3526 12.0275 13.9842 12.9035 13.1032 13.9287C12.3159 14.8419 11.4912 16.333 11.4912 16.8549C11.4912 17.0412 11.3974 17.2835 11.285 17.3954C11.1725 17.5072 11.0413 18.2155 10.9851 18.9796C10.8913 20.1166 10.9663 20.6384 11.3037 21.7567C11.5287 22.5209 11.941 23.4155 12.1847 23.751C12.6908 24.422 12.6908 24.6829 12.2222 26.4722C12.091 26.9568 11.8661 27.4041 11.7348 27.46C10.5539 27.9074 8.1546 25.093 7.34858 22.2972C7.04866 21.2349 7.02992 17.4513 7.32983 16.333C7.46105 15.867 7.68598 15.2333 7.83594 14.8978C7.9859 14.581 8.11711 14.2641 8.11711 14.1896C8.11711 14.115 8.49201 13.4813 8.96063 12.7917C11.3974 9.13862 15.3526 7.20024 20.3574 7.20024C21.5009 7.20024 22.6818 7.27479 23.0004 7.36798C25.5872 8.16943 26.2808 8.43036 27.293 9.02679C29.2612 10.201 30.6858 11.8039 32.1104 14.4878C32.2041 14.6555 32.3353 15.1029 32.3915 15.4756C32.4665 15.8484 32.5977 16.2025 32.6915 16.2584C32.7852 16.3143 32.8602 17.5258 32.8602 18.961C32.8602 21.5517 32.6727 22.5954 31.8854 24.7202C31.0044 27.05 28.7363 29.6221 26.6744 30.6285C25.4935 31.1877 23.2816 31.8028 22.4006 31.8028C21.2197 31.8028 18.8953 30.8336 18.258 30.0508C17.9581 29.6966 17.6769 29.8271 17.6769 30.3303C17.6769 30.5167 17.6019 30.8336 17.4895 31.0199C17.3958 31.1877 17.2271 31.7096 17.1333 32.1755C16.5897 34.6358 15.8212 36.6301 14.6403 38.4939C14.2841 39.0717 14.584 39.4072 15.5588 39.5376C16.0461 39.6122 16.7022 39.7427 17.0021 39.8358C17.7519 40.0781 21.8195 40.0409 23.1879 39.7986C24.425 39.5749 26.4307 39.0158 27.3305 38.643C32.9914 36.3318 37.2839 31.635 39.1396 25.6521C40.1331 22.465 40.1893 18.756 39.2896 15.0283C38.9897 13.8168 38.896 13.5372 38.0899 11.6734C36.9278 8.95223 34.3035 5.76509 31.6418 3.80807C29.3549 2.13063 27.1055 1.16144 23.6003 0.322715C22.6255 0.0990557 19.1578 -0.0873269 18.0518 0.043141ZM68.044 6.77156C67.313 6.88339 66.1508 8.07623 65.8509 9.00815C65.5322 10.0333 65.8509 11.1329 66.7506 11.9903C68.7376 13.91 72.1866 12.1021 71.7555 9.34364C71.4931 7.59164 69.881 6.47334 68.044 6.77156ZM47.6123 7.87121C47.4436 8.0576 47.4436 30.5353 47.631 30.7963C47.7247 30.9454 48.5308 31.0013 50.1053 30.9827L52.4484 30.964L52.5421 27.1805C52.6171 24.1051 52.6921 23.3596 52.917 23.2291C53.067 23.136 54.3416 23.0428 55.7475 23.0428C58.8216 23.0428 60.115 22.8191 61.5209 22.0736C63.3578 21.0857 64.4263 19.6692 65.0074 17.414C65.3635 15.9975 65.3635 14.9724 64.9886 13.5186C64.6512 12.2139 64.5013 11.8971 63.6952 10.8347C62.7018 9.51138 61.6896 8.78449 60.04 8.2067C59.1215 7.90849 58.353 7.85258 53.3856 7.79666C50.2928 7.75938 47.6872 7.79666 47.6123 7.87121ZM57.9031 12.5121C59.159 12.9035 59.7776 13.4627 60.0588 14.4692C60.4149 15.7925 60.1525 17.0226 59.3652 17.7681C58.503 18.5696 57.7344 18.756 55.2226 18.756C53.5731 18.756 53.067 18.7 52.842 18.4577C52.5984 18.2341 52.5421 17.6936 52.5421 15.5688C52.5421 12.2139 52.5234 12.2326 55.1289 12.2326C56.2536 12.2326 57.3408 12.3444 57.9031 12.5121ZM90.7814 11.4125C90.7814 12.6985 90.6877 13.91 90.5939 14.115C90.4627 14.3573 90.2003 14.4692 89.7504 14.4692C89.413 14.4692 89.0944 14.5437 89.0569 14.6555C89.0381 14.7487 89.0381 15.4011 89.0943 16.0907C89.1881 17.3208 89.2068 17.3395 89.7692 17.4699C90.0878 17.5258 90.444 17.6377 90.5564 17.7122C90.7251 17.8054 90.7814 19.2778 90.7814 23.0055C90.7814 28.0192 90.8001 28.2056 91.2125 28.9511C92.0748 30.5353 93.4244 31.0945 96.1611 31.0199L97.9981 30.964L98.0543 29.1561L98.1106 27.3296H97.642C96.9297 27.3296 95.8799 26.7704 95.7675 26.3231C95.7112 26.0994 95.655 24.1238 95.655 21.9058C95.655 18.8492 95.7112 17.824 95.8987 17.6749C96.0299 17.5631 96.5548 17.4513 97.0609 17.414L97.9981 17.3581V14.5624L96.9671 14.5064C96.4048 14.4692 95.8799 14.3387 95.805 14.2269C95.73 14.0964 95.655 12.8849 95.655 11.5243V9.06406H90.7814V11.4125ZM160.456 9.17589C160.381 9.25045 160.324 10.4247 160.324 11.7853C160.324 14.4319 160.306 14.4692 159.275 14.4692C158.806 14.4692 158.806 14.4878 158.862 15.9043C158.918 17.3208 158.937 17.3581 159.425 17.414C159.687 17.4513 160.006 17.5818 160.099 17.6936C160.212 17.824 160.324 20.0793 160.381 22.9496C160.437 25.708 160.531 28.2242 160.606 28.5224C160.83 29.3425 161.993 30.3862 163.099 30.7404C164.336 31.1504 167.485 31.1877 167.803 30.7963C167.953 30.6285 168.01 29.9576 167.972 28.9884L167.916 27.4228L167.26 27.3109C166.548 27.1991 165.742 26.8263 165.535 26.5095C165.46 26.3977 165.385 24.3661 165.385 21.999C165.385 17.1344 165.273 17.4513 166.904 17.4513C167.972 17.4513 168.066 17.2649 167.972 15.5688L167.916 14.5624L166.698 14.4692L165.479 14.376L165.385 11.7666L165.292 9.15725L162.93 9.10134C161.636 9.0827 160.531 9.11998 160.456 9.17589ZM81.5027 14.0218C80.5842 14.2641 79.5158 14.8792 78.8035 15.6061C77.9412 16.5007 77.7163 16.4448 77.6226 15.3079L77.5663 14.5624H72.8802V30.964L75.242 31.0013C77.5663 31.0572 77.6226 31.0386 77.735 30.6285C77.7913 30.4049 77.8475 28.0378 77.8475 25.3539C77.8475 20.042 77.8663 19.8929 78.9722 18.8492C79.4596 18.3832 79.722 18.29 80.7717 18.2341L81.9901 18.1595L82.7211 18.9237C83.5834 19.8183 83.4897 18.961 83.5647 26.6772C83.5834 28.7274 83.6021 30.5353 83.6209 30.7217C83.6584 30.9827 83.9583 31.0199 86.0577 30.9827L88.4383 30.964V17.88L87.8947 16.8176C86.9575 14.9724 85.5141 14.0964 83.3022 13.9846C82.515 13.9659 81.7089 13.9659 81.5027 14.0218ZM104.934 14.0218C102.909 14.5624 101.935 15.1029 100.679 16.333C98.9916 18.0291 98.223 20.0047 98.223 22.67C98.2418 27.3482 101.185 30.8149 105.533 31.225C109.245 31.5791 112.113 30.4981 113.95 28.0565C114.212 27.7023 114.775 26.5654 114.775 26.3604C114.775 26.2858 113.687 26.2113 112.375 26.2113H109.976L109.414 26.7891C108.758 27.46 107.839 27.8887 106.996 27.8887C106.152 27.8887 104.859 27.2923 104.259 26.6586C103.809 26.1554 103.153 24.7016 103.153 24.1983C103.153 24.0306 104.521 23.9747 108.926 23.9747C112.094 23.9747 114.775 23.9001 114.906 23.8256C115.187 23.6392 114.925 20.6757 114.512 19.5947C113.669 17.3395 112.075 15.4383 110.463 14.7674C109.995 14.581 109.451 14.3387 109.264 14.2455C108.87 14.0405 105.533 13.8727 104.934 14.0218ZM108.589 18.1036C109.32 18.6069 109.957 19.7997 109.864 20.4707C109.807 20.8994 109.77 20.8994 106.602 20.9553C102.947 21.0112 102.928 20.9926 103.509 19.6506C103.921 18.7187 104.746 17.88 105.515 17.6377C106.396 17.3581 107.82 17.5818 108.589 18.1036ZM132.676 14.0218C130.501 14.5996 128.983 15.5502 127.802 17.0226C127.334 17.619 126.959 18.1782 126.959 18.29C126.959 18.3832 126.828 18.7187 126.659 19.0355C126.49 19.3337 126.246 20.2657 126.115 21.1044C125.459 25.093 127.259 28.8206 130.633 30.4981L131.926 31.1504H134.644C137.456 31.1504 137.699 31.0945 139.424 30.1812C140.68 29.5102 142.742 26.9009 142.423 26.379C142.348 26.2858 141.28 26.2113 140.024 26.2113H137.718L137.25 26.7518C135.375 28.8579 131.87 27.7769 131.12 24.8507C131.008 24.4593 131.008 24.1238 131.101 24.0492C131.195 23.9933 133.876 23.956 137.081 23.9747C141.655 23.9747 142.892 23.9374 142.91 23.751C143.079 21.4212 141.955 17.9732 140.549 16.4821C139.761 15.6434 138.393 14.7115 137.718 14.5437C137.418 14.4692 137.081 14.3387 136.95 14.2455C136.687 14.0405 133.257 13.8727 132.676 14.0218ZM135.6 17.6563C136.444 17.9545 137.418 18.9983 137.568 19.7997C137.793 21.0112 137.812 21.0112 134.325 20.9553C131.195 20.8994 131.176 20.8994 131.12 20.4707C131.045 19.9488 131.701 18.6628 132.263 18.1782C133.069 17.5072 134.475 17.2835 135.6 17.6563ZM148.984 14.0218C145.141 14.9351 143.754 16.2957 143.735 19.1287C143.735 22.1854 145.272 23.4714 149.827 24.2729C152.958 24.8134 153.857 25.298 153.82 26.4722C153.801 27.3109 153.22 27.8514 152.058 28.0937C150.596 28.4106 149.452 28.0565 148.534 27.0314L147.803 26.2113H145.535C143.698 26.2113 143.267 26.2672 143.267 26.4722C143.267 27.0127 144.016 28.4292 144.635 29.1375C145.216 29.7525 145.666 30.0508 147.428 30.8895C147.597 30.9827 148.515 31.1318 149.434 31.2436C151.139 31.4486 154.101 31.2622 154.851 30.8895C155.02 30.8149 155.507 30.5726 155.919 30.3862C156.988 29.883 158 28.7461 158.375 27.6651C158.787 26.4349 158.675 24.7202 158.094 23.5274C157.4 22.1295 155.563 21.123 152.826 20.6384C149.302 20.0234 149.246 20.0047 148.684 19.4642C148.009 18.7746 148.009 18.5323 148.684 17.7868C149.227 17.1903 149.265 17.1717 150.765 17.1717C152.264 17.1717 152.302 17.1903 152.845 17.7868C153.145 18.1223 153.389 18.5137 153.389 18.6628C153.389 18.8864 153.782 18.9423 155.732 18.9423C158.319 18.9423 158.244 18.9983 157.794 17.6749C156.969 15.3265 154.851 14.1337 151.327 14.0032C150.24 13.9659 149.19 13.9659 148.984 14.0218ZM124.053 14.4132C123.229 14.6928 122.085 15.6247 121.729 16.2957C121.373 16.9667 121.054 16.6871 120.96 15.5688L120.867 14.5624H116.18L116.124 22.3904C116.106 26.6959 116.124 30.4049 116.18 30.6472C116.274 31.0572 116.33 31.0572 118.58 31.0199C119.873 31.0013 120.923 30.8895 120.998 30.7776C121.073 30.6845 121.148 28.7088 121.148 26.3977C121.148 22.7446 121.185 22.0922 121.504 21.2721C122.16 19.576 123.566 18.5696 125.328 18.5696C125.815 18.5696 126.021 18.4764 126.078 18.2341C126.209 17.6936 126.228 15.1774 126.115 14.6183C126.003 14.1709 125.909 14.0964 125.403 14.115C125.066 14.1337 124.466 14.2641 124.053 14.4132ZM66.3195 14.6928C66.2633 14.8233 66.2445 18.495 66.2633 22.8564L66.3195 30.7776L68.5501 30.8708C69.8998 30.9268 70.8745 30.8895 71.0244 30.7776C71.2306 30.6285 71.2869 29.0443 71.2869 22.7073C71.3056 18.3832 71.2494 14.7487 71.1931 14.6555C71.0057 14.376 66.4132 14.4132 66.3195 14.6928Z" fill="#E4E7EC"/>
</svg>
