<svg width="174" height="42" viewBox="0 0 174 42" fill="none" xmlns="http://www.w3.org/2000/svg">
<path d="M18.6965 0.045298C16.4445 0.29971 13.0664 1.3565 11.1444 2.41329C5.98024 5.21183 2.48568 9.57598 0.738407 15.3883C0.388951 16.5234 -0.0187465 19.6155 0.000667658 21.0637C0.000667658 22.3357 0.388951 25.4474 0.621922 26.1911C0.738407 26.5433 0.990791 27.3848 1.20435 28.0307C1.5538 29.1266 3.24284 32.5709 3.53405 32.8058C3.59229 32.8645 3.90292 33.2559 4.19413 33.706C4.91246 34.7824 6.79563 36.7002 8.21287 37.7962C9.30006 38.6377 12.3675 40.4186 12.7558 40.4382C12.8529 40.4382 12.8723 39.6945 12.814 38.716C12.6781 36.5437 13.0858 33.5886 13.9595 30.5748C14.1148 30.066 14.2313 29.4006 14.2313 29.107C14.2313 28.8135 14.3089 28.5003 14.406 28.4025C14.5031 28.2851 14.6778 27.7175 14.7749 27.1304C14.8914 26.5433 15.0855 25.6431 15.2214 25.1343C15.4155 24.371 15.3961 24.0775 15.1243 23.2555C14.736 22.003 14.7166 19.9677 15.1049 18.9892C16.0174 16.6604 17.0269 15.7797 18.7354 15.7797C20.7933 15.7797 21.7834 17.3453 21.3951 19.9677C21.2204 21.1615 20.735 23.0403 20.4244 23.6274C20.3467 23.8035 20.2108 24.2928 20.1526 24.7037C20.0749 25.1343 19.9196 25.7409 19.8226 26.0736C19.5508 26.8369 20.0749 28.3242 20.7738 28.8917C21.4339 29.4201 22.8123 29.5767 24.0743 29.2831C24.9673 29.0874 25.3362 28.8526 26.2681 27.9524C27.3747 26.8564 28.2095 25.5844 28.2095 24.9777C28.2095 24.8016 28.3066 24.5667 28.423 24.4493C28.9666 23.9013 29.2578 19.635 28.8501 17.8346C28.4036 15.858 27.0252 13.9206 25.2391 12.7855C23.453 11.6308 19.7643 11.2982 17.4929 12.081C15.9009 12.6289 14.4837 13.5487 13.5712 14.6251C12.7558 15.584 11.9016 17.1496 11.9016 17.6976C11.9016 17.8933 11.8045 18.1477 11.688 18.2651C11.5715 18.3826 11.4356 19.1262 11.3774 19.9286C11.2803 21.1224 11.358 21.6703 11.7074 22.8446C11.9404 23.6469 12.3675 24.5863 12.6199 24.9386C13.1441 25.6431 13.1441 25.9171 12.6587 27.7958C12.5228 28.3046 12.2898 28.7743 12.1539 28.833C10.9309 29.3027 8.44584 26.3476 7.61103 23.4121C7.3004 22.2966 7.28099 18.3238 7.59162 17.1496C7.72751 16.6604 7.96048 15.995 8.1158 15.6427C8.27111 15.31 8.40701 14.9773 8.40701 14.8991C8.40701 14.8208 8.79529 14.1554 9.28065 13.4313C11.8045 9.59555 15.9009 7.56025 21.0845 7.56025C22.2687 7.56025 23.4918 7.63853 23.8219 7.73638C26.501 8.5779 27.2194 8.85188 28.2677 9.47813C30.3062 10.711 31.7817 12.3941 33.2572 15.2122C33.3542 15.3883 33.4901 15.858 33.5484 16.2494C33.626 16.6408 33.7619 17.0126 33.859 17.0714C33.9561 17.1301 34.0337 18.4021 34.0337 19.909C34.0337 22.6293 33.8396 23.7252 33.0242 25.9562C32.1117 28.4025 29.7626 31.1032 27.6271 32.16C26.404 32.7471 24.1131 33.3929 23.2006 33.3929C21.9775 33.3929 19.5702 32.3752 18.9101 31.5533C18.5995 31.1815 18.3082 31.3185 18.3082 31.8468C18.3082 32.0425 18.2306 32.3752 18.1141 32.5709C18.017 32.7471 17.8423 33.295 17.7452 33.7843C17.1822 36.3676 16.3862 38.4616 15.1631 40.4186C14.7943 41.0253 15.1049 41.3775 16.1144 41.5145C16.6192 41.5928 17.2987 41.7298 17.6093 41.8276C18.3859 42.082 22.5988 42.0429 24.016 41.7885C25.2974 41.5537 27.3747 40.9665 28.3066 40.5751C34.1696 38.1484 38.6155 33.2168 40.5375 26.9347C41.5664 23.5882 41.6247 19.6938 40.6928 15.7797C40.3822 14.5077 40.2851 14.2141 39.4503 12.2571C38.2466 9.39984 35.5286 6.05334 32.7718 3.99847C30.4033 2.23716 28.0736 1.21951 24.4431 0.338851C23.4336 0.104009 19.842 -0.0916933 18.6965 0.045298ZM70.4742 7.11013C69.717 7.22755 68.5133 8.48005 68.2027 9.45856C67.8727 10.5349 68.2027 11.6896 69.1346 12.5898C71.1925 14.6055 74.7647 12.7072 74.3182 9.81082C74.0464 7.97122 72.3768 6.79701 70.4742 7.11013ZM49.3127 8.26477C49.138 8.46048 49.138 32.0621 49.3321 32.3361C49.4292 32.4927 50.264 32.5514 51.8948 32.5318L54.3216 32.5122L54.4186 28.5395C54.4963 25.3104 54.574 24.5276 54.8069 24.3906C54.9622 24.2928 56.2824 24.1949 57.7385 24.1949C60.9224 24.1949 62.262 23.9601 63.718 23.1773C65.6206 22.14 66.7272 20.6527 67.3291 18.2847C67.6979 16.7974 67.6979 15.721 67.3097 14.1945C66.9602 12.8246 66.8049 12.4919 65.9701 11.3764C64.9411 9.98695 63.8928 9.22371 62.1843 8.61704C61.233 8.30392 60.437 8.2452 55.2923 8.18649C52.0889 8.14735 49.3904 8.18649 49.3127 8.26477ZM59.9711 13.1377C61.2718 13.5487 61.9125 14.1358 62.2037 15.1926C62.5726 16.5821 62.3008 17.8737 61.4854 18.6565C60.5923 19.4981 59.7964 19.6938 57.1949 19.6938C55.4864 19.6938 54.9622 19.635 54.7293 19.3806C54.4769 19.1458 54.4186 18.5783 54.4186 16.3473C54.4186 12.8246 54.3992 12.8442 57.0978 12.8442C58.2626 12.8442 59.3887 12.9616 59.9711 13.1377ZM94.0236 11.9831C94.0236 13.3335 93.9265 14.6055 93.8294 14.8208C93.6935 15.0752 93.4217 15.1926 92.9558 15.1926C92.6063 15.1926 92.2763 15.2709 92.2375 15.3883C92.2181 15.4862 92.2181 16.1711 92.2763 16.8952C92.3734 18.1869 92.3928 18.2064 92.9752 18.3434C93.3053 18.4021 93.6741 18.5195 93.7906 18.5978C93.9653 18.6957 94.0236 20.2417 94.0236 24.1558C94.0236 29.4201 94.043 29.6158 94.4701 30.3987C95.3632 32.0621 96.761 32.6492 99.5955 32.5709L101.498 32.5122L101.556 30.6139L101.615 28.696H101.129C100.391 28.696 99.3042 28.1089 99.1877 27.6393C99.1295 27.4044 99.0713 25.33 99.0713 23.0011C99.0713 19.7916 99.1295 18.7153 99.3237 18.5587C99.4596 18.4413 100.003 18.3238 100.527 18.2847L101.498 18.226V15.2905L100.43 15.2318C99.8478 15.1926 99.3042 15.0556 99.2266 14.9382C99.1489 14.8012 99.0713 13.5292 99.0713 12.1005V9.51727H94.0236V11.9831ZM166.186 9.63469C166.108 9.71297 166.05 10.9459 166.05 12.3745C166.05 15.1535 166.031 15.1926 164.963 15.1926C164.478 15.1926 164.478 15.2122 164.536 16.6995C164.594 18.1869 164.614 18.226 165.118 18.2847C165.39 18.3238 165.72 18.4608 165.817 18.5783C165.934 18.7153 166.05 21.0832 166.108 24.097C166.167 26.9934 166.264 29.6354 166.341 29.9485C166.574 30.8096 167.778 31.9056 168.924 32.2774C170.205 32.7079 173.466 32.7471 173.796 32.3361C173.952 32.16 174.01 31.4554 173.971 30.4378L173.913 28.7939L173.233 28.6765C172.496 28.5591 171.661 28.1677 171.447 27.835C171.37 27.7175 171.292 25.5844 171.292 23.099C171.292 17.9912 171.176 18.3238 172.865 18.3238C173.971 18.3238 174.068 18.1281 173.971 16.3473L173.913 15.2905L172.651 15.1926L171.389 15.0948L171.292 12.3549L171.195 9.61512L168.749 9.55641C167.409 9.53684 166.264 9.57598 166.186 9.63469ZM84.4136 14.7229C83.4623 14.9773 82.3557 15.6232 81.6179 16.3864C80.7249 17.3258 80.4919 17.2671 80.3948 16.0733L80.3366 15.2905H75.483V32.5122L77.9292 32.5514C80.3366 32.6101 80.3948 32.5905 80.5113 32.16C80.5695 31.9251 80.6278 29.4397 80.6278 26.6216C80.6278 21.0441 80.6472 20.8875 81.7926 19.7916C82.2974 19.3024 82.5692 19.2045 83.6564 19.1458L84.9183 19.0675L85.6755 19.8699C86.5685 20.8093 86.4715 19.909 86.5491 28.0111C86.5685 30.1638 86.5879 32.0621 86.6074 32.2578C86.6462 32.5318 86.9568 32.5709 89.1312 32.5318L91.5968 32.5122V18.774L91.0338 17.6585C90.0631 15.721 88.5682 14.8012 86.2773 14.6838C85.4619 14.6642 84.6271 14.6642 84.4136 14.7229ZM108.681 14.7229C106.585 15.2905 105.575 15.858 104.274 17.1496C102.527 18.9305 101.731 21.005 101.731 23.8035C101.75 28.7156 104.798 32.3557 109.303 32.7862C113.147 33.158 116.117 32.023 118.02 29.4593C118.291 29.0874 118.874 27.8937 118.874 27.6784C118.874 27.6001 117.748 27.5218 116.389 27.5218H113.904L113.321 28.1285C112.642 28.833 111.69 29.2831 110.817 29.2831C109.943 29.2831 108.604 28.6569 107.982 27.9915C107.516 27.4631 106.837 25.9366 106.837 25.4083C106.837 25.2321 108.254 25.1734 112.817 25.1734C116.098 25.1734 118.874 25.0951 119.01 25.0168C119.301 24.8211 119.029 21.7095 118.602 20.5744C117.728 18.2064 116.078 16.2103 114.408 15.5057C113.923 15.31 113.36 15.0556 113.166 14.9578C112.758 14.7425 109.303 14.5664 108.681 14.7229ZM112.467 19.0088C113.224 19.5372 113.884 20.7897 113.787 21.4942C113.729 21.9443 113.69 21.9443 110.409 22.003C106.623 22.0618 106.604 22.0422 107.206 20.6331C107.633 19.6546 108.487 18.774 109.283 18.5195C110.196 18.226 111.671 18.4608 112.467 19.0088ZM137.414 14.7229C135.162 15.3296 133.59 16.3277 132.367 17.8737C131.881 18.5 131.493 19.0871 131.493 19.2045C131.493 19.3024 131.357 19.6546 131.182 19.9873C131.008 20.3004 130.755 21.2789 130.619 22.1596C129.94 26.3476 131.804 30.2617 135.298 32.023L136.638 32.7079H139.453C142.365 32.7079 142.617 32.6492 144.403 31.6903C145.704 30.9858 147.84 28.2459 147.51 27.698C147.432 27.6001 146.325 27.5218 145.025 27.5218H142.637L142.151 28.0894C140.21 30.3008 136.579 29.1657 135.803 26.0932C135.686 25.6822 135.686 25.33 135.783 25.2517C135.881 25.193 138.657 25.1538 141.977 25.1734C146.714 25.1734 147.995 25.1343 148.014 24.9386C148.189 22.4923 147.024 18.8718 145.568 17.3062C144.753 16.4255 143.336 15.447 142.637 15.2709C142.326 15.1926 141.977 15.0556 141.841 14.9578C141.569 14.7425 138.016 14.5664 137.414 14.7229ZM140.443 18.5391C141.317 18.8522 142.326 19.9482 142.481 20.7897C142.714 22.0618 142.734 22.0618 139.123 22.003C135.881 21.9443 135.861 21.9443 135.803 21.4942C135.725 20.9463 136.405 19.5959 136.987 19.0871C137.822 18.3826 139.278 18.1477 140.443 18.5391ZM154.305 14.7229C150.325 15.6819 148.888 17.1105 148.869 20.0852C148.869 23.2947 150.461 24.645 155.178 25.4865C158.42 26.0541 159.352 26.5629 159.313 27.7958C159.294 28.6765 158.692 29.244 157.489 29.4984C155.974 29.8311 154.79 29.4593 153.839 28.3829L153.082 27.5218H150.732C148.83 27.5218 148.383 27.5805 148.383 27.7958C148.383 28.3634 149.16 29.8507 149.801 30.5944C150.402 31.2402 150.868 31.5533 152.693 32.434C152.868 32.5318 153.819 32.6884 154.771 32.8058C156.537 33.0211 159.605 32.8254 160.381 32.434C160.556 32.3557 161.061 32.1013 161.488 31.9056C162.594 31.3772 163.643 30.1834 164.031 29.0483C164.458 27.7567 164.342 25.9562 163.74 24.7037C163.022 23.236 161.119 22.1792 158.285 21.6703C154.635 21.0245 154.576 21.005 153.994 20.4374C153.295 19.7133 153.295 19.4589 153.994 18.6761C154.557 18.0499 154.596 18.0303 156.149 18.0303C157.702 18.0303 157.741 18.0499 158.304 18.6761C158.615 19.0284 158.867 19.4393 158.867 19.5959C158.867 19.8308 159.275 19.8895 161.294 19.8895C163.973 19.8895 163.895 19.9482 163.429 18.5587C162.575 16.0928 160.381 14.8404 156.731 14.7034C155.605 14.6642 154.518 14.6642 154.305 14.7229ZM128.484 15.1339C127.63 15.4275 126.445 16.406 126.076 17.1105C125.708 17.815 125.378 17.5215 125.28 16.3473L125.183 15.2905H120.33L120.272 23.5099C120.252 28.0307 120.272 31.9251 120.33 32.1795C120.427 32.6101 120.485 32.6101 122.815 32.5709C124.154 32.5514 125.242 32.434 125.319 32.3165C125.397 32.2187 125.475 30.1442 125.475 27.7175C125.475 23.8818 125.513 23.1968 125.843 22.3357C126.523 20.5548 127.979 19.4981 129.804 19.4981C130.309 19.4981 130.522 19.4002 130.58 19.1458C130.716 18.5783 130.736 15.9363 130.619 15.3492C130.503 14.8795 130.406 14.8012 129.882 14.8208C129.532 14.8404 128.911 14.9773 128.484 15.1339ZM68.6881 15.4275C68.6298 15.5645 68.6104 19.4198 68.6298 23.9992L68.6881 32.3165L70.9984 32.4144C72.3962 32.4731 73.4057 32.434 73.561 32.3165C73.7746 32.16 73.8328 30.4965 73.8328 23.8426C73.8522 19.3024 73.794 15.4862 73.7358 15.3883C73.5416 15.0948 68.7851 15.1339 68.6881 15.4275Z" fill="#8895AA"/>
</svg>
