<svg width="109" height="26" viewBox="0 0 109 26" fill="none" xmlns="http://www.w3.org/2000/svg">
<path d="M3.02148 25V3.63086H0.287109V0.9375H8.75V3.63086H6.17969V25H3.02148ZM9.90117 25V0.9375H13.073V11H16.6961V0.9375H19.868V25H16.6961V13.6523H13.073V25H9.90117ZM22.6324 25V0.9375H30.193V3.63086H25.8043V11.3418H29.9605V14.0078H25.8043V22.3066H30.2887V25H22.6324ZM37.1574 25V0.9375H42.2844C43.2414 0.9375 44.0253 1.09245 44.6359 1.40234C45.2466 1.70312 45.7206 2.14974 46.0578 2.74219C46.3951 3.33464 46.6275 4.05469 46.7551 4.90234C46.8918 5.75 46.9602 6.71159 46.9602 7.78711V8.21094C46.9602 9.79688 46.828 11.1367 46.5637 12.2305C46.3085 13.3151 45.8482 14.14 45.1828 14.7051C44.5174 15.2611 43.5695 15.5391 42.3391 15.5391H40.3293V25H37.1574ZM40.3293 12.9004H41.8605C42.4074 12.9004 42.8176 12.7546 43.091 12.4629C43.3736 12.1621 43.5604 11.6699 43.6516 10.9863C43.7518 10.2936 43.802 9.36393 43.802 8.19727V7.73242C43.802 6.2832 43.6835 5.20312 43.4465 4.49219C43.2186 3.78125 42.7082 3.42578 41.9152 3.42578H40.3293V12.9004ZM48.6035 25V0.9375H51.7754V22.334H56.3008V25H48.6035ZM56.0574 25L59.6121 0.9375H63.618L67.4598 25H64.4793L63.8367 20.5293H59.6805L59.0926 25H56.0574ZM60.0086 17.9727H63.4676L61.6902 5.51758H61.6492L60.0086 17.9727ZM68.8707 25V0.9375H71.318L76.691 16.5098L76.4176 9.71484V0.9375H79.2477V25H76.9508L71.6188 9.14062L71.7965 15.3066V25H68.8707ZM82.0121 25V0.9375H89.5727V3.63086H85.184V11.3418H89.3402V14.0078H85.184V22.3066H89.6684V25H82.0121ZM92.6652 25V3.63086H89.9309V0.9375H98.3938V3.63086H95.8234V25H92.6652ZM103.633 25.2734C102.648 25.2734 101.837 25.1048 101.199 24.7676C100.57 24.4303 100.078 23.9473 99.7227 23.3184C99.3672 22.6895 99.1211 21.9375 98.9844 21.0625C98.8477 20.1875 98.7793 19.2077 98.7793 18.123V15.8672H101.828V18.3008C101.828 19.8229 101.942 20.9121 102.17 21.5684C102.407 22.2246 102.895 22.5527 103.633 22.5527C104.134 22.5527 104.508 22.4342 104.754 22.1973C105 21.9603 105.16 21.582 105.232 21.0625C105.305 20.543 105.342 19.8548 105.342 18.998C105.342 17.9954 105.15 17.1159 104.768 16.3594C104.394 15.5938 103.842 14.8327 103.113 14.0762L101.445 12.4082C100.98 11.916 100.534 11.3919 100.105 10.8359C99.6862 10.2708 99.3444 9.63737 99.0801 8.93555C98.8158 8.23372 98.6836 7.4362 98.6836 6.54297C98.6836 5.3125 98.8249 4.25521 99.1074 3.37109C99.39 2.48698 99.8776 1.8125 100.57 1.34766C101.272 0.873698 102.252 0.636719 103.51 0.636719C104.485 0.636719 105.273 0.800781 105.875 1.12891C106.477 1.44792 106.937 1.9082 107.256 2.50977C107.575 3.11133 107.794 3.83138 107.912 4.66992C108.031 5.50846 108.09 6.44727 108.09 7.48633V8.93555H105.109V7.28125C105.109 6.40625 105.068 5.68164 104.986 5.10742C104.913 4.52409 104.763 4.08659 104.535 3.79492C104.307 3.50326 103.965 3.35742 103.51 3.35742C103.081 3.35742 102.735 3.45768 102.471 3.6582C102.206 3.85872 102.015 4.16862 101.896 4.58789C101.778 4.99805 101.719 5.53125 101.719 6.1875C101.719 6.77083 101.787 7.25846 101.924 7.65039C102.07 8.04232 102.288 8.41602 102.58 8.77148C102.881 9.11784 103.245 9.51888 103.674 9.97461L105.451 11.875C106.354 12.832 107.074 13.8665 107.611 14.9785C108.158 16.0905 108.432 17.3574 108.432 18.7793C108.432 20.1556 108.29 21.3268 108.008 22.293C107.725 23.2591 107.238 23.9974 106.545 24.5078C105.852 25.0182 104.882 25.2734 103.633 25.2734Z" fill="#E4E7EC"/>
</svg>
