<svg width="154" height="32" viewBox="0 0 154 32" fill="none" xmlns="http://www.w3.org/2000/svg">
<path d="M4.59375 31.8125H0.09375V8.375H4.03125L4.26562 10.5C4.93229 9.73958 5.72917 9.14583 6.65625 8.71875C7.59375 8.28125 8.61458 8.0625 9.71875 8.0625C11.1562 8.0625 12.4323 8.41667 13.5469 9.125C14.6615 9.82292 15.5417 10.7865 16.1875 12.0156C16.8333 13.2344 17.1562 14.625 17.1562 16.1875C17.1562 17.7396 16.8333 19.1302 16.1875 20.3594C15.5417 21.5885 14.6615 22.5573 13.5469 23.2656C12.4323 23.9635 11.1562 24.3125 9.71875 24.3125C8.69792 24.3125 7.75 24.1302 6.875 23.7656C6.01042 23.3906 5.25 22.875 4.59375 22.2188V31.8125ZM8.57812 20.2812C9.35938 20.2812 10.0469 20.1094 10.6406 19.7656C11.2344 19.4115 11.6979 18.9271 12.0312 18.3125C12.375 17.6875 12.5469 16.9792 12.5469 16.1875C12.5469 15.3854 12.375 14.6771 12.0312 14.0625C11.6979 13.4479 11.2344 12.9635 10.6406 12.6094C10.0469 12.2552 9.36458 12.0781 8.59375 12.0781C7.86458 12.0781 7.20833 12.2396 6.625 12.5625C6.04167 12.875 5.56771 13.3125 5.20312 13.875C4.84896 14.4375 4.64583 15.0833 4.59375 15.8125V16.5938C4.64583 17.3021 4.84896 17.9375 5.20312 18.5C5.55729 19.0521 6.02604 19.4896 6.60938 19.8125C7.19271 20.125 7.84896 20.2812 8.57812 20.2812ZM27.4219 24.3125C25.8177 24.3125 24.3802 23.9635 23.1094 23.2656C21.8385 22.5573 20.8385 21.5938 20.1094 20.375C19.3906 19.1458 19.0312 17.75 19.0312 16.1875C19.0312 14.6354 19.3906 13.25 20.1094 12.0312C20.8385 10.8021 21.8385 9.83333 23.1094 9.125C24.3802 8.41667 25.8177 8.0625 27.4219 8.0625C29.026 8.0625 30.4531 8.41667 31.7031 9.125C32.9635 9.83333 33.9531 10.8021 34.6719 12.0312C35.401 13.25 35.7656 14.6354 35.7656 16.1875C35.7656 17.75 35.401 19.1458 34.6719 20.375C33.9531 21.5938 32.9635 22.5573 31.7031 23.2656C30.4531 23.9635 29.026 24.3125 27.4219 24.3125ZM27.4062 20.2969C28.125 20.2969 28.7656 20.1198 29.3281 19.7656C29.901 19.401 30.349 18.9115 30.6719 18.2969C31.0052 17.6719 31.1719 16.9583 31.1719 16.1562C31.1719 15.3854 31.0052 14.6927 30.6719 14.0781C30.349 13.4635 29.901 12.9792 29.3281 12.625C28.7656 12.2604 28.125 12.0781 27.4062 12.0781C26.6771 12.0781 26.026 12.2604 25.4531 12.625C24.8906 12.9792 24.4427 13.4635 24.1094 14.0781C23.7865 14.6927 23.625 15.3854 23.625 16.1562C23.625 16.9583 23.7865 17.6719 24.1094 18.2969C24.4427 18.9115 24.8906 19.401 25.4531 19.7656C26.026 20.1198 26.6771 20.2969 27.4062 20.2969ZM64.0469 24H59.5625V16.1562C59.5625 14.8542 59.3073 13.849 58.7969 13.1406C58.2865 12.4323 57.5625 12.0781 56.625 12.0781C55.6667 12.0781 54.9167 12.4375 54.375 13.1562C53.8438 13.875 53.5781 14.875 53.5781 16.1562V24H49.0938V16.1562C49.0938 14.8542 48.8385 13.849 48.3281 13.1406C47.8177 12.4323 47.0885 12.0781 46.1406 12.0781C45.1927 12.0781 44.4479 12.4375 43.9062 13.1562C43.375 13.875 43.1094 14.875 43.1094 16.1562V24H38.625V8.375H42.2031L42.3594 10.9531C42.8802 10.0052 43.5781 9.28646 44.4531 8.79688C45.3385 8.30729 46.3646 8.0625 47.5312 8.0625C48.75 8.0625 49.8021 8.31771 50.6875 8.82812C51.5729 9.33854 52.2552 10.0729 52.7344 11.0312C53.2656 10.0625 53.9688 9.32812 54.8438 8.82812C55.7292 8.31771 56.776 8.0625 57.9844 8.0625C59.8906 8.0625 61.375 8.67188 62.4375 9.89062C63.5104 11.099 64.0469 12.7917 64.0469 14.9688V24ZM74.9844 24.3125C73.3802 24.3125 71.9427 23.9635 70.6719 23.2656C69.401 22.5573 68.401 21.5938 67.6719 20.375C66.9531 19.1458 66.5938 17.75 66.5938 16.1875C66.5938 14.6354 66.9531 13.25 67.6719 12.0312C68.401 10.8021 69.401 9.83333 70.6719 9.125C71.9427 8.41667 73.3802 8.0625 74.9844 8.0625C76.5885 8.0625 78.0156 8.41667 79.2656 9.125C80.526 9.83333 81.5156 10.8021 82.2344 12.0312C82.9635 13.25 83.3281 14.6354 83.3281 16.1875C83.3281 17.75 82.9635 19.1458 82.2344 20.375C81.5156 21.5938 80.526 22.5573 79.2656 23.2656C78.0156 23.9635 76.5885 24.3125 74.9844 24.3125ZM74.9688 20.2969C75.6875 20.2969 76.3281 20.1198 76.8906 19.7656C77.4635 19.401 77.9115 18.9115 78.2344 18.2969C78.5677 17.6719 78.7344 16.9583 78.7344 16.1562C78.7344 15.3854 78.5677 14.6927 78.2344 14.0781C77.9115 13.4635 77.4635 12.9792 76.8906 12.625C76.3281 12.2604 75.6875 12.0781 74.9688 12.0781C74.2396 12.0781 73.5885 12.2604 73.0156 12.625C72.4531 12.9792 72.0052 13.4635 71.6719 14.0781C71.349 14.6927 71.1875 15.3854 71.1875 16.1562C71.1875 16.9583 71.349 17.6719 71.6719 18.2969C72.0052 18.9115 72.4531 19.401 73.0156 19.7656C73.5885 20.1198 74.2396 20.2969 74.9688 20.2969ZM102.281 24H98.3438L98.1094 21.875C97.4427 22.625 96.6406 23.2188 95.7031 23.6562C94.776 24.0938 93.7604 24.3125 92.6562 24.3125C91.2292 24.3125 89.9531 23.9635 88.8281 23.2656C87.7135 22.5573 86.8333 21.5885 86.1875 20.3594C85.5417 19.1302 85.2188 17.7396 85.2188 16.1875C85.2188 14.625 85.5417 13.2344 86.1875 12.0156C86.8333 10.7865 87.7135 9.82292 88.8281 9.125C89.9531 8.41667 91.2292 8.0625 92.6562 8.0625C93.6771 8.0625 94.625 8.25 95.5 8.625C96.3854 8.98958 97.151 9.5 97.7969 10.1562V0.5625H102.281V24ZM93.8125 20.2969C94.5521 20.2969 95.2188 20.1302 95.8125 19.7969C96.4167 19.4635 96.8958 19.0104 97.25 18.4375C97.6146 17.8542 97.7969 17.1927 97.7969 16.4531V15.8906C97.7969 15.151 97.6146 14.4948 97.25 13.9219C96.8958 13.349 96.4167 12.901 95.8125 12.5781C95.2188 12.2448 94.5521 12.0781 93.8125 12.0781C93.0521 12.0781 92.3698 12.2552 91.7656 12.6094C91.1615 12.9635 90.6823 13.4531 90.3281 14.0781C89.9844 14.6927 89.8125 15.3958 89.8125 16.1875C89.8125 16.9688 89.9844 17.6719 90.3281 18.2969C90.6823 18.9115 91.1615 19.401 91.7656 19.7656C92.3698 20.1198 93.0521 20.2969 93.8125 20.2969ZM113.516 24.3125C111.911 24.3125 110.474 23.9635 109.203 23.2656C107.932 22.5573 106.932 21.5938 106.203 20.375C105.484 19.1458 105.125 17.75 105.125 16.1875C105.125 14.6354 105.484 13.25 106.203 12.0312C106.932 10.8021 107.932 9.83333 109.203 9.125C110.474 8.41667 111.911 8.0625 113.516 8.0625C115.12 8.0625 116.547 8.41667 117.797 9.125C119.057 9.83333 120.047 10.8021 120.766 12.0312C121.495 13.25 121.859 14.6354 121.859 16.1875C121.859 17.75 121.495 19.1458 120.766 20.375C120.047 21.5938 119.057 22.5573 117.797 23.2656C116.547 23.9635 115.12 24.3125 113.516 24.3125ZM113.5 20.2969C114.219 20.2969 114.859 20.1198 115.422 19.7656C115.995 19.401 116.443 18.9115 116.766 18.2969C117.099 17.6719 117.266 16.9583 117.266 16.1562C117.266 15.3854 117.099 14.6927 116.766 14.0781C116.443 13.4635 115.995 12.9792 115.422 12.625C114.859 12.2604 114.219 12.0781 113.5 12.0781C112.771 12.0781 112.12 12.2604 111.547 12.625C110.984 12.9792 110.536 13.4635 110.203 14.0781C109.88 14.6927 109.719 15.3854 109.719 16.1562C109.719 16.9583 109.88 17.6719 110.203 18.2969C110.536 18.9115 110.984 19.401 111.547 19.7656C112.12 20.1198 112.771 20.2969 113.5 20.2969ZM129.203 24H124.719V8.375H128.625L128.781 11.0781C129.302 10.1302 130.01 9.39062 130.906 8.85938C131.802 8.32812 132.828 8.0625 133.984 8.0625C134.318 8.0625 134.651 8.08854 134.984 8.14062C135.328 8.18229 135.677 8.25 136.031 8.34375L135.469 12.375C134.781 12.1771 134.13 12.0781 133.516 12.0781C132.651 12.0781 131.891 12.276 131.234 12.6719C130.589 13.0573 130.089 13.599 129.734 14.2969C129.38 14.9844 129.203 15.7917 129.203 16.7188V24ZM145.516 24.3125C143.911 24.3125 142.474 23.9635 141.203 23.2656C139.932 22.5573 138.932 21.5938 138.203 20.375C137.484 19.1458 137.125 17.75 137.125 16.1875C137.125 14.6354 137.484 13.25 138.203 12.0312C138.932 10.8021 139.932 9.83333 141.203 9.125C142.474 8.41667 143.911 8.0625 145.516 8.0625C147.12 8.0625 148.547 8.41667 149.797 9.125C151.057 9.83333 152.047 10.8021 152.766 12.0312C153.495 13.25 153.859 14.6354 153.859 16.1875C153.859 17.75 153.495 19.1458 152.766 20.375C152.047 21.5938 151.057 22.5573 149.797 23.2656C148.547 23.9635 147.12 24.3125 145.516 24.3125ZM145.5 20.2969C146.219 20.2969 146.859 20.1198 147.422 19.7656C147.995 19.401 148.443 18.9115 148.766 18.2969C149.099 17.6719 149.266 16.9583 149.266 16.1562C149.266 15.3854 149.099 14.6927 148.766 14.0781C148.443 13.4635 147.995 12.9792 147.422 12.625C146.859 12.2604 146.219 12.0781 145.5 12.0781C144.771 12.0781 144.12 12.2604 143.547 12.625C142.984 12.9792 142.536 13.4635 142.203 14.0781C141.88 14.6927 141.719 15.3854 141.719 16.1562C141.719 16.9583 141.88 17.6719 142.203 18.2969C142.536 18.9115 142.984 19.401 143.547 19.7656C144.12 20.1198 144.771 20.2969 145.5 20.2969Z" fill="#E4E7EC"/>
</svg>
