<svg width="164" height="38" viewBox="0 0 164 38" fill="none" xmlns="http://www.w3.org/2000/svg">
<g clip-path="url(#clip0_2123_56469)">
<path d="M38.389 19C38.389 29.4975 29.7995 38 19.1945 38C8.58954 38 0 29.4975 0 19C0 8.5025 8.58954 0 19.1945 0C29.7995 0 38.389 8.5025 38.389 19Z" fill="white"/>
<path d="M21.7559 19H16.3174V13.3H21.7559C23.3394 13.3 24.635 14.5825 24.635 16.15C24.635 17.7175 23.3394 19 21.7559 19ZM21.7559 9.5H12.4785V28.5H16.3174V22.8H21.7559C25.4668 22.8 28.4739 19.8233 28.4739 16.15C28.4739 12.4767 25.4668 9.5 21.7559 9.5Z" fill="#1B1F24"/>
<path d="M58.5575 16.6726C58.5575 15.6276 57.7417 14.9942 56.686 14.9942H53.8548V18.3351H56.686C57.7417 18.3351 58.5575 17.7017 58.5575 16.6726V16.6726ZM51.1836 25.3334V12.6667H57.0699C59.8051 12.6667 61.2927 14.4876 61.2927 16.6726C61.2927 18.8417 59.7891 20.6626 57.0699 20.6626H53.8708V25.3334H51.1836Z" fill="white"/>
<path d="M62.9082 25.3334V16.1025H65.3075V17.3217C65.9633 16.5459 67.083 15.8809 68.2187 15.8809V18.1925C68.0427 18.1609 67.8348 18.145 67.5629 18.145C66.7631 18.145 65.7074 18.5884 65.3235 19.1742V25.3492H62.9082V25.3334Z" fill="white"/>
<path d="M76.2691 20.5992C76.2691 19.2059 75.4373 17.9867 73.9338 17.9867C72.4462 17.9867 71.6144 19.2059 71.6144 20.5992C71.6144 22.0242 72.4462 23.2275 73.9338 23.2275C75.4373 23.2275 76.2691 22.0084 76.2691 20.5992ZM69.1191 20.5992C69.1191 18.05 70.9266 15.8809 73.9178 15.8809C76.9409 15.8809 78.7484 18.05 78.7484 20.5992C78.7484 23.1484 76.9409 25.3334 73.9178 25.3334C70.9266 25.3334 69.1191 23.1484 69.1191 20.5992Z" fill="white"/>
<path d="M86.807 22.1984V19.0159C86.4071 18.4142 85.5433 17.9867 84.7596 17.9867C83.384 17.9867 82.4402 19.0476 82.4402 20.5992C82.4402 22.1667 83.384 23.2276 84.7596 23.2276C85.5433 23.2276 86.4071 22.8001 86.807 22.1984ZM86.807 25.3334V23.9559C86.0872 24.8584 85.1115 25.3334 83.9918 25.3334C81.7044 25.3334 79.9609 23.6234 79.9609 20.5992C79.9609 17.6701 81.6724 15.8809 83.9918 15.8809C85.0635 15.8809 86.0872 16.3242 86.807 17.2584V12.6667H89.2223V25.3334H86.807Z" fill="white"/>
<path d="M97.734 25.3331V23.9715C97.1102 24.6365 96.0225 25.3331 94.535 25.3331C92.5355 25.3331 91.5918 24.2565 91.5918 22.499V16.1023H93.9911V21.5648C93.9911 22.8156 94.6469 23.2273 95.6706 23.2273C96.5984 23.2273 97.3342 22.7206 97.75 22.1981V16.1023H100.149V25.3331H97.734Z" fill="white"/>
<path d="M101.922 20.5992C101.922 17.8442 103.953 15.8809 106.752 15.8809C108.624 15.8809 109.744 16.6884 110.351 17.5117L108.784 18.9684C108.352 18.335 107.696 18.0025 106.864 18.0025C105.409 18.0025 104.401 19.0475 104.401 20.615C104.401 22.1825 105.425 23.2434 106.864 23.2434C107.696 23.2434 108.352 22.8634 108.784 22.2617L110.351 23.7184C109.744 24.5417 108.624 25.365 106.752 25.365C103.953 25.3334 101.922 23.37 101.922 20.5992Z" fill="white"/>
<path d="M112.414 22.8476V18.1609H110.91V16.0867H112.414V13.6326H114.813V16.1026H116.653V18.1767H114.813V22.2301C114.813 22.8159 115.117 23.2434 115.645 23.2434C115.997 23.2434 116.349 23.1167 116.477 22.9584L116.988 24.7634C116.637 25.0801 115.997 25.3492 114.989 25.3492C113.293 25.3334 112.414 24.4784 112.414 22.8476" fill="white"/>
<path d="M131.977 25.3334V19.8709H126.042V25.3334H123.371V12.6667H126.042V17.5592H131.977V12.6667H134.68V25.3334H131.977Z" fill="white"/>
<path d="M143.238 25.3331V23.9715C142.614 24.6365 141.526 25.3331 140.039 25.3331C138.039 25.3331 137.096 24.2565 137.096 22.499V16.1023H139.495V21.5648C139.495 22.8156 140.151 23.2273 141.175 23.2273C142.102 23.2273 142.838 22.7206 143.254 22.1981V16.1023H145.653V25.3331H143.238Z" fill="white"/>
<path d="M154.148 25.3334V19.665C154.148 18.4142 153.493 17.9867 152.469 17.9867C151.525 17.9867 150.805 18.5092 150.39 19.0317V25.3334H147.99V16.1025H150.39V17.2584C150.981 16.5934 152.101 15.8809 153.573 15.8809C155.588 15.8809 156.548 17.005 156.548 18.7467V25.3334H154.148Z" fill="white"/>
<path d="M159.425 22.8476V18.1609H157.922V16.0867H159.425V13.6326H161.825V16.1026H163.664V18.1767H161.825V22.2301C161.825 22.8159 162.129 23.2434 162.657 23.2434C163.008 23.2434 163.36 23.1167 163.488 22.9584L164 24.7634C163.648 25.0801 163.008 25.3492 162.001 25.3492C160.305 25.3334 159.425 24.4784 159.425 22.8476" fill="white"/>
</g>
<defs>
<clipPath id="clip0_2123_56469">
<rect width="164" height="38" fill="white"/>
</clipPath>
</defs>
</svg>
