<svg width="130" height="47" viewBox="0 0 130 47" fill="none" xmlns="http://www.w3.org/2000/svg">
<mask id="mask0_3902_73688" style="mask-type:alpha" maskUnits="userSpaceOnUse" x="1" y="8" width="127" height="37">
<path d="M17.3252 17.083C17.2042 15.9169 16.6945 15.0089 15.7961 14.3591C14.9062 13.7093 13.7486 13.3844 12.3231 13.3844C11.321 13.3844 10.4614 13.5401 9.74439 13.8517C9.02736 14.1632 8.47878 14.5861 8.09865 15.1201C7.71854 15.6543 7.52417 16.264 7.51552 16.9495C7.51552 17.5191 7.64079 18.0132 7.89132 18.4315C8.15049 18.8499 8.50038 19.206 8.94096 19.4997C9.38155 19.7845 9.86965 20.0249 10.4053 20.2208C10.9409 20.4166 11.4809 20.5813 12.0251 20.7148L14.5132 21.3558C15.5153 21.596 16.4786 21.9209 17.4029 22.3304C18.3358 22.7399 19.1696 23.2562 19.9038 23.8793C20.6469 24.5024 21.2343 25.2545 21.6662 26.1358C22.0982 27.017 22.3142 28.0496 22.3142 29.2335C22.3142 30.8358 21.9168 32.2467 21.122 33.4662C20.3272 34.6768 19.1782 35.6248 17.675 36.3102C16.1805 36.9868 14.3706 37.3251 12.2453 37.3251C10.1807 37.3251 8.38806 36.9957 6.8676 36.337C5.35577 35.6783 4.17222 34.7169 3.31696 33.4528C2.47034 32.1889 2.01246 30.6489 1.94336 28.833H6.67322C6.74233 29.7854 7.02742 30.5776 7.52848 31.2097C8.02955 31.8417 8.6818 32.3135 9.48522 32.6251C10.2973 32.9366 11.2044 33.0924 12.2065 33.0924C13.2518 33.0924 14.1675 32.9321 14.9537 32.6117C15.7485 32.2823 16.3706 31.8283 16.8197 31.2497C17.2689 30.6622 17.4979 29.9768 17.5066 29.1935C17.4979 28.4814 17.2949 27.8939 16.8975 27.431C16.5001 26.9592 15.9429 26.5676 15.2259 26.256C14.5175 25.9356 13.6881 25.6507 12.7379 25.4014L9.71848 24.6003C7.5328 24.0217 5.805 23.1449 4.53506 21.9699C3.27376 20.786 2.64311 19.2149 2.64311 17.2565C2.64311 15.6454 3.06642 14.2345 3.91305 13.0239C4.76832 11.8132 5.93027 10.8742 7.3989 10.2066C8.86754 9.53005 10.5305 9.19179 12.3879 9.19179C14.2713 9.19179 15.9213 9.53005 17.338 10.2066C18.7635 10.8742 19.8823 11.8044 20.6943 12.9972C21.5064 14.1811 21.9254 15.543 21.9513 17.083H17.3252ZM35.6022 16.4021V20.1407H24.1598V16.4021H35.6022ZM26.9848 11.4884H31.6758V30.7424C31.6758 31.3921 31.7708 31.8907 31.9609 32.2378C32.1596 32.5761 32.4187 32.8075 32.7384 32.9321C33.058 33.0568 33.4122 33.119 33.8011 33.119C34.0947 33.119 34.3626 33.0968 34.6044 33.0523C34.855 33.0078 35.0451 32.9677 35.1746 32.9321L35.9651 36.7108C35.7146 36.7998 35.356 36.8977 34.8895 37.0045C34.4317 37.1114 33.8702 37.1737 33.2049 37.1915C32.03 37.2271 30.9717 37.0446 30.03 36.644C29.0884 36.2345 28.3412 35.6026 27.7882 34.7481C27.244 33.8935 26.9762 32.8253 26.9848 31.5435V11.4884ZM38.7956 36.9111V16.4021H43.4866V36.9111H38.7956ZM41.154 13.4912C40.4111 13.4912 39.7718 13.2376 39.2362 12.7302C38.7006 12.2139 38.4328 11.5952 38.4328 10.8742C38.4328 10.1442 38.7006 9.52559 39.2362 9.0182C39.7718 8.50192 40.4111 8.24377 41.154 8.24377C41.9056 8.24377 42.5449 8.50192 43.0719 9.0182C43.6075 9.52559 43.8754 10.1442 43.8754 10.8742C43.8754 11.5952 43.6075 12.2139 43.0719 12.7302C42.5449 13.2376 41.9056 13.4912 41.154 13.4912ZM56.2628 37.3117C54.2758 37.3117 52.5696 36.8621 51.1442 35.9631C49.7274 35.064 48.6345 33.8223 47.8657 32.2378C47.1054 30.6445 46.7253 28.8108 46.7253 26.7367C46.7253 24.6537 47.1141 22.8156 47.8916 21.2222C48.6691 19.6199 49.7663 18.3737 51.1831 17.4835C52.6085 16.5845 54.2932 16.135 56.2369 16.135C57.8524 16.135 59.2822 16.442 60.5262 17.0563C61.7788 17.6616 62.7766 18.5206 63.5196 19.6333C64.2626 20.737 64.6859 22.0277 64.7895 23.5054H60.3059C60.1245 22.5174 59.6925 21.6939 59.01 21.0352C58.3362 20.3677 57.4333 20.0339 56.3017 20.0339C55.3427 20.0339 54.5005 20.3008 53.7748 20.835C53.049 21.3601 52.4832 22.1168 52.0772 23.1049C51.6798 24.0929 51.4811 25.2768 51.4811 26.6565C51.4811 28.0541 51.6798 29.2557 52.0772 30.2617C52.4746 31.2587 53.0318 32.0286 53.7489 32.5716C54.4745 33.1058 55.3255 33.3727 56.3017 33.3727C56.9928 33.3727 57.6104 33.2392 58.1547 32.9722C58.7077 32.6963 59.1699 32.3002 59.5413 31.7839C59.9128 31.2676 60.1677 30.64 60.3059 29.9012H64.7895C64.6772 31.3521 64.2626 32.6383 63.5455 33.76C62.8285 34.8726 61.8522 35.745 60.6169 36.3771C59.3815 37.0002 57.9301 37.3117 56.2628 37.3117ZM72.1879 30.4753L72.175 24.6403H72.9266L80.0797 16.4021H85.5611L76.7623 26.4964H75.7904L72.1879 30.4753ZM67.9116 36.9111V9.56565H72.6026V36.9111H67.9116ZM80.4037 36.9111L73.9244 27.5778L77.0863 24.173L86.0146 36.9111H80.4037ZM87.9576 36.9111V16.4021H92.6485V36.9111H87.9576ZM90.316 13.4912C89.5731 13.4912 88.9338 13.2376 88.3982 12.7302C87.8626 12.2139 87.5947 11.5952 87.5947 10.8742C87.5947 10.1442 87.8626 9.52559 88.3982 9.0182C88.9338 8.50192 89.5731 8.24377 90.316 8.24377C91.0676 8.24377 91.7069 8.50192 92.2339 9.0182C92.7695 9.52559 93.0373 10.1442 93.0373 10.8742C93.0373 11.5952 92.7695 12.2139 92.2339 12.7302C91.7069 13.2376 91.0676 13.4912 90.316 13.4912ZM106.824 16.4021V20.1407H95.058V16.4021H106.824ZM97.9995 36.9111V14.4659C97.9995 13.0862 98.2759 11.9379 98.8289 11.021C99.3904 10.1042 100.142 9.41877 101.084 8.96479C102.025 8.51082 103.071 8.28383 104.22 8.28383C105.032 8.28383 105.753 8.35059 106.384 8.48411C107.014 8.61764 107.481 8.7378 107.783 8.84462L106.85 12.5833C106.651 12.5209 106.401 12.4587 106.099 12.3964C105.796 12.3252 105.459 12.2896 105.088 12.2896C104.215 12.2896 103.598 12.5076 103.235 12.9438C102.881 13.371 102.703 13.9852 102.703 14.7864V36.9111H97.9995ZM112.684 44.6021C112.045 44.6021 111.453 44.5486 110.908 44.4418C110.373 44.3439 109.945 44.2282 109.626 44.0946L110.714 40.3293C111.397 40.534 112.006 40.632 112.541 40.6231C113.077 40.6141 113.548 40.4406 113.954 40.1023C114.369 39.7729 114.719 39.221 115.004 38.4466L115.405 37.3383L108.187 16.4021H113.163L117.751 31.8907H117.957L122.559 16.4021H127.548L119.578 39.3946C119.206 40.4806 118.714 41.4108 118.1 42.1852C117.488 42.9686 116.735 43.565 115.846 43.9745C114.964 44.3928 113.911 44.6021 112.684 44.6021Z" fill="white"/>
</mask>
<g mask="url(#mask0_3902_73688)">
<path d="M146.915 -13.6763H-12.3351C-14.8543 -13.6763 -16.8965 -11.572 -16.8965 -8.97627V54.796C-16.8965 57.3918 -14.8543 59.496 -12.3351 59.496H146.915C149.434 59.496 151.476 57.3918 151.476 54.796V-8.97627C151.476 -11.572 149.434 -13.6763 146.915 -13.6763Z" fill="#E4E7EC"/>
<path d="M146.915 -13.3826H-12.335C-14.6968 -13.3826 -16.6113 -11.4098 -16.6113 -8.97632V54.796C-16.6113 57.2295 -14.6968 59.2022 -12.335 59.2022H146.915C149.277 59.2022 151.191 57.2295 151.191 54.796V-8.97632C151.191 -11.4098 149.277 -13.3826 146.915 -13.3826Z" fill="#E4E7EC" stroke="black" stroke-opacity="0.08" stroke-width="0.5"/>
</g>
</svg>
