<svg width="128" height="42" viewBox="0 0 128 42" fill="none" xmlns="http://www.w3.org/2000/svg">
<path d="M122.386 7.73684H116.772V0H104.445L98.7756 7.73684H88.7018L85.3333 11.0526V7.73684H77.4737V0H52.7719V7.73684H18.0211L12.3509 0H0V26.5263L15.7193 42H31.4386V37.5789L35.9298 42H66.2456V37.5789L70.7368 42H85.3333V37.5789L89.8246 42H117.895L128 32.0526V13.2632L122.386 7.73684ZM19.0877 18.7895H11.2281V21H19.0877V29.8421H6.73684L2.24561 25.4211V2.21053H11.2281V9.94737H19.0877V18.7895ZM52.7719 29.8421H25.8246L21.3333 25.4211V9.94737H30.3158V21H32.5614V9.94737H41.5439V21H43.7895V9.94737H52.7719V29.8421ZM64 29.8421H55.0175V9.94737H64V29.8421ZM64 7.73684H55.0175V2.21053H64V7.73684ZM83.0877 18.7895H75.2281V21H83.0877V29.8421H70.7368L66.2456 25.4211V2.21053H75.2281V9.94737H83.0877V18.7895ZM103.298 18.7895H94.3158V21H103.298V29.8421H89.8246L85.3333 25.4211V14.3684L89.8246 9.94737H103.298V18.7895ZM125.754 29.8421H116.772V18.7895H114.526V29.8421H105.544V2.21053H114.526V9.94737H121.263L125.754 14.3684V29.8421Z" fill="#E4E7EC"/>
</svg>
