<svg width="256" height="256" viewBox="0 0 256 256" fill="none" xmlns="http://www.w3.org/2000/svg">
<g clip-path="url(#clip0_2107_54662)">
<path d="M96.6523 195.647H127.893L159.133 60.3529H127.893L96.6523 195.647Z" fill="#075FE4"/>
<path d="M67.1168 60.8716L0 127.988L0.012496 128.001L0 128.013L67.1168 195.13L87.473 174.774L40.6999 128.001L87.473 81.2278L67.1168 60.8716Z" fill="#075FE4"/>
<path d="M20.3585 107.659L0.0136719 128.004L20.3592 148.349L40.704 128.004L20.3585 107.659Z" fill="#075FE4"/>
<path d="M255.996 127.988L188.88 60.8716L168.523 81.2278L215.297 128.001L168.523 174.774L188.88 195.13L255.996 128.013L255.984 128.001L255.996 127.988Z" fill="#075FE4"/>
<path d="M235.642 107.654L215.297 128L235.642 148.345L255.987 127.999L235.642 107.654Z" fill="#075FE4"/>
</g>
<defs>
<clipPath id="clip0_2107_54662">
<rect width="256" height="256" fill="white"/>
</clipPath>
</defs>
</svg>
