<svg width="138" height="34" viewBox="0 0 138 34" fill="none" xmlns="http://www.w3.org/2000/svg">
<path d="M44.5602 13.2956C44.5602 10.8706 42.1529 8.29513 37.9871 8.29513C33.3092 8.29513 28.1702 11.6567 27.3849 18.363C26.5825 25.1363 30.8848 28.1466 35.2213 28.1466C39.5578 28.1466 41.8285 26.4909 44.1504 24.2833C42.1529 21.8249 39.5749 22.9621 39.0798 23.213C38.5335 23.4806 37.8335 23.8485 36.3994 23.8485C34.7262 23.8485 33.0189 23.1126 33.0189 20.0521C43.7407 19.0152 44.5602 15.7206 44.5602 13.2956ZM39.2505 13.697C39.1822 14.4496 38.8749 15.7373 33.4457 16.4565C34.5896 12.4761 36.775 12.1751 37.7823 12.1751C38.7213 12.1751 39.3188 12.8942 39.2505 13.697ZM21.085 14.3492C21.085 14.3492 18.7802 21.4402 18.5924 22.0256C18.5241 21.4235 16.8338 8.69651 16.8338 8.69651C12.9071 8.69651 10.8071 11.4393 9.69739 14.3325C9.69739 14.3325 6.89744 21.4402 6.65842 22.0423C6.64135 21.4904 6.2316 14.4161 6.2316 14.4161C5.99258 10.8706 2.68044 8.71323 0 8.71323L3.24385 27.9961C7.35841 27.9793 9.57788 25.2533 10.7388 22.3601C10.7388 22.3601 13.2144 16.0885 13.3168 15.8042C13.3339 16.0718 15.0924 27.9961 15.0924 27.9961C19.2241 27.9961 21.4435 25.4373 22.6386 22.6444L28.4263 8.71323C24.3459 8.71323 22.1947 11.4393 21.085 14.3492ZM59.7209 8.26168C57.177 8.26168 55.2307 9.61633 53.5917 11.6065V11.5898L55.06 0C51.6796 0 48.9308 2.87654 48.4016 7.15789L45.8407 27.8455C47.787 27.8455 49.8528 27.2937 50.9625 25.8888C51.9527 27.1431 53.4381 28.1466 55.6405 28.1466C61.3428 28.1466 65.2525 21.6576 65.2525 15.5701C65.2184 10.0177 62.4696 8.26168 59.7209 8.26168ZM59.1916 18.2125C58.5941 21.6075 56.6649 23.9154 54.8039 23.9154C52.9259 23.9154 52.1235 23.0959 52.1235 23.0959C52.482 20.119 52.7039 18.2961 53.3869 16.7241C54.0698 15.152 55.6917 12.6434 57.3819 12.6434C59.038 12.6434 59.7892 14.8008 59.1916 18.2125ZM79.4913 8.71323H75.5133L75.5304 8.51254C75.8035 5.97049 76.4182 4.63256 78.4498 4.41515C79.8327 4.28136 80.4474 3.57895 80.601 2.80964C80.7205 2.20757 81.0961 0.117068 81.0961 0.117068C73.106 0.0668962 70.5963 3.44515 69.9475 8.59616L69.9305 8.71323H69.8451C68.5476 8.71323 67.1134 10.1515 66.8744 11.9744L66.7891 12.6434H69.4524L67.2159 30.7388L66.533 33.9833C66.6183 33.9833 66.7208 34 66.8061 34C70.5451 33.8662 72.9353 30.9729 73.4646 26.7752L75.206 12.6434H76.4523C77.6816 12.6434 79.1157 11.4393 79.3718 9.43237L79.4913 8.71323ZM100.184 8.37875C95.591 8.37875 91.2545 11.6901 89.9228 16.8913C88.5911 22.0925 90.6057 28.2469 97.3666 28.2469C104.11 28.2469 108.003 21.8416 108.003 16.5066C108.003 11.2051 104.332 8.37875 100.184 8.37875ZM102.045 18.0453C101.806 20.4033 100.747 23.9823 97.8446 23.9823C94.9252 23.9823 95.3349 19.8013 95.6251 17.8111C95.9324 15.6872 97.1446 12.6601 99.7568 12.6601C102.096 12.6601 102.318 15.3861 102.045 18.0453ZM130.693 14.3492C130.693 14.3492 128.388 21.4402 128.2 22.0256C128.132 21.4235 126.442 8.69651 126.442 8.69651C122.515 8.69651 120.415 11.4393 119.305 14.3325C119.305 14.3325 116.505 21.4402 116.266 22.0423C116.249 21.4904 115.839 14.4161 115.839 14.4161C115.6 10.8706 112.288 8.71323 109.608 8.71323L112.835 27.9961C116.949 27.9793 119.169 25.2533 120.33 22.3601C120.33 22.3601 122.805 16.0885 122.891 15.8042C122.908 16.0718 124.666 27.9961 124.666 27.9961C128.798 27.9961 131.017 25.4373 132.212 22.6444L138 8.71323C133.937 8.71323 131.785 11.4393 130.693 14.3492ZM83.2473 0.117068L79.901 26.5578L79.2181 29.819C79.3035 29.819 79.4059 29.8357 79.4913 29.8357C83.0937 29.7855 85.6546 26.6916 86.1326 22.7949L88.0619 7.62617C88.6423 2.99361 85.8253 0.117068 83.2473 0.117068Z" fill="white"/>
</svg>
