<svg width="142" height="32" viewBox="0 0 142 32" fill="none" xmlns="http://www.w3.org/2000/svg">
<g clip-path="url(#clip0_2123_56462)">
<path d="M23.6831 31.959L14.3778 31.7853C11.3648 31.7249 8.34448 31.8457 5.39076 31.2191C0.89724 30.2828 0.578919 25.6922 0.245792 21.8416C-0.213184 16.428 -0.0355157 10.9162 0.830615 5.54793C1.3192 2.53535 3.24394 0.738365 6.21987 0.542057C16.2655 -0.167675 26.3778 -0.0846211 36.4012 0.247594C37.4598 0.277795 38.5258 0.443902 39.5696 0.632661C44.722 1.5538 44.8478 6.75598 45.1809 11.1352C45.5141 15.5597 45.3734 20.0068 44.7368 24.4011C44.226 28.0404 43.2488 31.0907 39.1254 31.3852C33.9583 31.7702 28.9095 32.0798 23.7276 31.9817C23.7276 31.959 23.6979 31.959 23.6831 31.959V31.959ZM18.2124 22.7476C22.1063 20.4674 25.9262 18.2249 29.7979 15.9598C25.8966 13.6796 22.0841 11.4372 18.2124 9.17209V22.7476Z" fill="#E4E7EC"/>
<path d="M119.821 27.8217C119.643 28.5617 119.487 29.1431 119.332 29.7622H115.69V1.1084H119.939V11.679C120.161 11.3921 120.272 11.2713 120.368 11.1429C121.094 10.1236 122.034 9.45915 123.248 9.20244C125.18 8.81737 126.831 9.68566 127.416 11.5808C127.793 12.7587 128.038 14.0196 128.067 15.2503C128.127 18.4139 128.082 21.57 127.971 24.7336C127.927 25.7001 127.638 26.6892 127.275 27.5952C126.083 30.5852 122.189 31.0382 120.257 28.4484C120.139 28.2899 120.028 28.1162 119.821 27.8217V27.8217ZM120.028 19.9391V25.1791C120.028 26.0323 120.472 26.5533 121.309 26.7496C122.13 26.9459 122.796 26.6212 123.13 25.8435C123.27 25.5189 123.411 25.1791 123.418 24.8393C123.5 21.638 123.574 18.4366 123.596 15.2277C123.596 14.6312 123.455 14.012 123.278 13.4307C122.945 12.3812 122.027 12.0716 121.123 12.6832C120.442 13.1513 120.028 13.8157 120.028 14.6991V19.9391ZM108.479 9.61016H112.929V29.7773H109.457C109.331 29.0147 109.205 28.2295 109.057 27.3083C108.82 27.6632 108.679 27.8897 108.531 28.1162C107.376 29.8151 105.74 30.3964 103.808 30.0869C102.157 29.8151 101.165 28.5164 100.943 26.3872C100.877 25.7529 100.847 25.1112 100.847 24.4769C100.832 19.7579 100.847 15.0238 100.847 10.3048V9.59506H105.348V10.4181C105.348 14.9785 105.333 19.5314 105.363 24.0918C105.363 24.7412 105.429 25.4132 105.541 26.0625C105.666 26.7269 106.14 26.9686 106.777 26.9233C107.806 26.8402 108.516 26.0625 108.516 25.0205V10.5011C108.479 10.2066 108.479 9.93483 108.479 9.61016V9.61016ZM77.8466 9.59506H82.3179V10.4483C82.3179 14.9861 82.3031 19.5163 82.3327 24.039C82.3327 24.6883 82.3919 25.3603 82.5252 25.9945C82.6954 26.742 83.1248 26.9837 83.8577 26.8855C84.8719 26.742 85.4863 26.0248 85.4937 24.9752V10.5313V9.62526H89.9428V29.7773H86.4857C86.3598 29.0298 86.234 28.2597 86.0711 27.2857C85.849 27.6254 85.7232 27.8217 85.5973 28.0256C84.4425 29.7547 82.8213 30.3889 80.8447 30.0793C79.2605 29.8377 78.2908 28.6447 77.9946 26.6892C77.9132 26.0776 77.854 25.4736 77.854 24.862C77.8392 19.9618 77.8392 15.0389 77.8392 10.1387L77.8466 9.59506ZM75.5517 20.3619C75.5369 21.0415 75.4925 21.721 75.4555 22.4006C75.2852 24.4392 75.2038 27.331 73.59 28.8184C72.561 29.7547 71.2581 30.0944 69.9108 30.1397C69.3111 30.1548 68.7041 30.1548 68.1045 30.0718C65.2692 29.6338 63.9515 28.3578 63.4777 25.1791C62.9373 21.5096 62.8929 17.7797 63.5369 14.1102C64.2032 10.3123 66.4981 8.96838 70.0662 9.21754C73.3975 9.45915 74.8855 11.6865 75.2778 14.8577C75.4925 16.6773 75.5961 18.5196 75.5517 20.3619V20.3619ZM71.0212 19.6673C71.0212 18.3762 71.0508 17.0775 71.0064 15.7864C70.9768 15.0389 70.8805 14.2839 70.7251 13.5439C70.5474 12.6907 70.0144 12.283 69.3482 12.2981C68.6967 12.3132 68.2377 12.7209 68.0008 13.5137C67.9194 13.8082 67.8306 14.1102 67.8306 14.4047C67.8306 16.4282 67.8158 18.4592 67.801 20.4827C67.7862 22.3704 67.5493 24.3486 68.1341 26.1531C68.3118 26.7043 68.7707 27.0063 69.3704 27.0063C69.9552 27.0063 70.3401 26.7118 70.5548 26.1833C70.7251 25.7756 70.8731 25.3301 70.8731 24.8922C70.925 23.1556 71.0212 21.4115 71.0212 19.6673ZM56.9484 15.8695C57.3408 13.9139 57.7109 12.0036 58.1181 10.0858C58.6289 7.64705 59.1989 5.20827 59.7023 2.76194C59.8281 2.16546 60.065 2.022 60.6202 2.0371C61.8121 2.0824 63.0261 2.0522 64.2994 2.0522C63.8849 3.60758 63.4777 5.08746 63.078 6.54469C61.8121 11.1202 60.5462 15.7109 59.2951 20.3015C59.1989 20.6564 59.1545 21.0415 59.1545 21.419C59.1397 23.9257 59.1545 26.4249 59.1545 28.9317V29.7471H54.809C54.7942 29.5206 54.7646 29.2941 54.7646 29.0676C54.7646 27.6481 54.6536 26.2211 54.7794 24.8167C55.0977 21.4417 54.0465 18.3384 53.1952 15.1975C52.07 11.0447 50.9299 6.87691 49.8047 2.72419C49.7455 2.52788 49.7233 2.31646 49.6641 2.07485H54.0984C55.0311 6.65795 55.9713 11.241 56.9484 15.8695ZM141.97 21.1321H134.478C134.56 22.6648 134.589 24.122 134.745 25.5642C134.856 26.5684 135.396 26.9988 136.247 27.0063C137.136 27.0214 137.654 26.5684 137.861 25.5717C137.928 25.2471 137.972 24.9224 138.002 24.5902C138.031 24.2957 138.046 23.9786 138.069 23.5558C139.334 23.6237 140.571 23.6992 141.792 23.7521C142.503 25.9039 141.222 28.6674 139.068 29.5206C137.373 30.2001 135.633 30.2001 133.901 29.6792C132.62 29.2941 131.665 28.4635 131.236 27.1875C130.836 25.9945 130.458 24.7487 130.377 23.5029C130.155 20.4299 130.073 17.3267 130.532 14.2461C130.614 13.7327 130.755 13.2419 130.91 12.7436C131.532 10.6899 132.887 9.42895 134.982 9.21754C136.122 9.10428 137.299 9.14959 138.424 9.3459C140.245 9.67056 141.215 11.007 141.637 12.7587C141.829 13.5817 141.97 14.4273 141.999 15.2654C142.007 17.1908 141.97 19.101 141.97 21.1321ZM137.713 18.4819C137.713 16.9643 137.728 15.5372 137.698 14.1027C137.698 13.7629 137.573 13.408 137.447 13.0833C137.195 12.4491 136.669 12.2755 136.04 12.2755C135.411 12.2755 135.011 12.6001 134.856 13.1815C134.382 14.9256 134.537 16.7075 134.552 18.497C135.685 18.4819 136.714 18.4819 137.713 18.4819V18.4819Z" fill="#E4E7EC"/>
<path d="M93.3773 5.75209H88.9727V2.11279H102.12V5.72944H97.745V29.7473H93.3847L93.3773 5.75209Z" fill="#E4E7EC"/>
</g>
<defs>
<clipPath id="clip0_2123_56462">
<rect width="142" height="32" fill="white"/>
</clipPath>
</defs>
</svg>
