<svg width="125" height="28" viewBox="0 0 125 28" fill="none" xmlns="http://www.w3.org/2000/svg">
<g clip-path="url(#clip0_2112_54374)">
<path d="M20.6116 27.9641L12.5131 27.8122C9.89087 27.7593 7.26225 27.865 4.6916 27.3167C0.780873 26.4975 0.503836 22.4807 0.213914 19.1114C-0.185535 14.3745 -0.0309095 9.55169 0.722888 4.85444C1.14811 2.21843 2.82321 0.64607 5.41319 0.4743C14.156 -0.146715 22.9567 -0.0740435 31.6801 0.216644C32.6014 0.243071 33.5292 0.388415 34.4376 0.553578C38.9218 1.35958 39.0313 5.91148 39.3212 9.74328C39.6111 13.6147 39.4887 17.506 38.9346 21.351C38.4901 24.5353 37.6397 27.2044 34.0511 27.462C29.554 27.799 25.1601 28.0698 20.6502 27.9839C20.6502 27.9641 20.6244 27.9641 20.6116 27.9641V27.9641ZM15.8504 19.9041C19.2393 17.909 22.5637 15.9468 25.9332 13.9649C22.5379 11.9697 19.2199 10.0075 15.8504 8.02558V19.9041Z" fill="#E4E7EC"/>
<path d="M104.698 24.3438C104.544 24.9912 104.408 25.4999 104.273 26.0417H101.103V0.969604H104.801V10.2189C104.995 9.96781 105.091 9.8621 105.175 9.74979C105.806 8.8579 106.625 8.27651 107.681 8.05189C109.363 7.71495 110.799 8.47471 111.308 10.133C111.637 11.1636 111.85 12.2669 111.875 13.3438C111.927 16.112 111.888 18.8735 111.792 21.6417C111.753 22.4873 111.502 23.3528 111.186 24.1456C110.149 26.7618 106.76 27.1582 105.078 24.8921C104.975 24.7534 104.879 24.6014 104.698 24.3438V24.3438ZM104.879 17.4465V22.0315C104.879 22.778 105.265 23.2339 105.993 23.4056C106.708 23.5774 107.288 23.2933 107.578 22.6129C107.7 22.3288 107.823 22.0315 107.829 21.7342C107.9 18.933 107.965 16.1318 107.984 13.324C107.984 12.802 107.862 12.2603 107.707 11.7516C107.417 10.8333 106.618 10.5624 105.832 11.0975C105.239 11.5071 104.879 12.0885 104.879 12.8615V17.4465ZM94.8279 8.40865H98.7V26.0549H95.6784C95.5689 25.3876 95.4593 24.7005 95.3305 23.8945C95.1243 24.205 95.0019 24.4032 94.873 24.6014C93.868 26.0879 92.4441 26.5966 90.7626 26.3258C89.3259 26.0879 88.4625 24.9516 88.2693 23.0885C88.2113 22.5336 88.1855 21.972 88.1855 21.4171C88.1726 17.2879 88.1855 13.1456 88.1855 9.01645V8.39543H92.1027V9.11555C92.1027 13.1059 92.0898 17.0897 92.1156 21.0801C92.1156 21.6483 92.1735 22.2363 92.2702 22.8044C92.3797 23.3858 92.792 23.5972 93.3461 23.5576C94.2417 23.4849 94.8602 22.8044 94.8602 21.8927V9.18823C94.8279 8.93057 94.8279 8.69273 94.8279 8.40865V8.40865ZM68.168 8.39543H72.0594V9.14198C72.0594 13.1126 72.0465 17.0765 72.0723 21.0339C72.0723 21.602 72.1238 22.19 72.2398 22.745C72.388 23.399 72.7617 23.6105 73.3995 23.5246C74.2821 23.399 74.8169 22.7714 74.8233 21.8531V9.21465V8.42186H78.6954V26.0549H75.6867C75.5771 25.4008 75.4676 24.727 75.3259 23.8747C75.1326 24.172 75.0231 24.3438 74.9135 24.5222C73.9085 26.0351 72.4975 26.59 70.7773 26.3192C69.3986 26.1078 68.5546 25.0639 68.2969 23.3528C68.226 22.8177 68.1745 22.2891 68.1745 21.754C68.1616 17.4663 68.1616 13.1588 68.1616 8.87111L68.168 8.39543ZM66.1708 17.8165C66.1579 18.4111 66.1192 19.0056 66.087 19.6002C65.9388 21.384 65.868 23.9144 64.4635 25.2159C63.5679 26.0351 62.434 26.3324 61.2614 26.372C60.7396 26.3852 60.2113 26.3852 59.6894 26.3126C57.2219 25.9294 56.0751 24.8129 55.6627 22.0315C55.1924 18.8207 55.1537 15.557 55.7143 12.3462C56.2941 9.02306 58.2913 7.84708 61.3967 8.0651C64.2959 8.27651 65.5909 10.2255 65.9324 13.0002C66.1192 14.5924 66.2094 16.2044 66.1708 17.8165V17.8165ZM62.2278 17.2087C62.2278 16.0789 62.2536 14.9426 62.215 13.8129C62.1892 13.1588 62.1054 12.4981 61.9701 11.8507C61.8155 11.1041 61.3516 10.7474 60.7718 10.7606C60.2048 10.7738 59.8054 11.1306 59.5992 11.8243C59.5283 12.0819 59.451 12.3462 59.451 12.6038C59.451 14.3744 59.4381 16.1516 59.4253 17.9222C59.4124 19.5738 59.2062 21.3047 59.7152 22.8837C59.8698 23.366 60.2693 23.6303 60.7911 23.6303C61.3001 23.6303 61.6351 23.3726 61.8219 22.9102C61.9701 22.5534 62.099 22.1636 62.099 21.7804C62.1441 20.2609 62.2278 18.7348 62.2278 17.2087ZM49.9803 13.8855C50.3217 12.1744 50.6438 10.5029 50.9982 8.82486C51.4427 6.69093 51.9388 4.55699 52.3769 2.41645C52.4865 1.89453 52.6926 1.769 53.1758 1.78222C54.2131 1.82186 55.2697 1.79543 56.3779 1.79543C56.0171 3.15639 55.6627 4.45129 55.3148 5.72636C54.2131 9.72997 53.1114 13.7468 52.0226 17.7636C51.9388 18.0741 51.9002 18.4111 51.9002 18.7414C51.8873 20.9348 51.9002 23.1216 51.9002 25.315V26.0285H48.1183C48.1054 25.8303 48.0797 25.6321 48.0797 25.4339C48.0797 24.1918 47.983 22.9432 48.0925 21.7144C48.3696 18.7612 47.4547 16.0459 46.7138 13.2975C45.7345 9.6639 44.7423 6.01705 43.763 2.38342C43.7115 2.21165 43.6922 2.02666 43.6406 1.81525H47.4998C48.3116 5.82546 49.1298 9.83567 49.9803 13.8855ZM123.975 18.4903H117.455C117.526 19.8315 117.551 21.1065 117.687 22.3684C117.783 23.2471 118.254 23.6237 118.995 23.6303C119.768 23.6435 120.219 23.2471 120.399 22.375C120.457 22.0909 120.496 21.8069 120.521 21.5162C120.547 21.2585 120.56 20.981 120.579 20.6111C121.681 20.6705 122.757 20.7366 123.82 20.7828C124.439 22.6657 123.324 25.0837 121.449 25.8303C119.974 26.4249 118.46 26.4249 116.952 25.969C115.838 25.6321 115.007 24.9053 114.633 23.7888C114.285 22.745 113.956 21.6549 113.885 20.5648C113.692 17.8759 113.621 15.1606 114.021 12.4651C114.092 12.0159 114.214 11.5864 114.349 11.1504C114.891 9.35339 116.07 8.25009 117.893 8.0651C118.885 7.966 119.909 8.00564 120.889 8.17742C122.474 8.4615 123.318 9.63087 123.685 11.1636C123.852 11.8837 123.975 12.6237 124.001 13.357C124.007 15.0417 123.975 16.7132 123.975 18.4903ZM120.27 16.1714C120.27 14.8435 120.283 13.5948 120.257 12.3396C120.257 12.0423 120.148 11.7318 120.038 11.4477C119.819 10.8927 119.362 10.7408 118.814 10.7408C118.267 10.7408 117.919 11.0249 117.783 11.5336C117.371 13.0597 117.506 14.6189 117.519 16.1846C118.505 16.1714 119.4 16.1714 120.27 16.1714V16.1714Z" fill="#E4E7EC"/>
<path d="M81.683 5.0329H77.8496V1.84851H89.2918V5.01308H85.4842V26.0287H81.6894L81.683 5.0329Z" fill="#E4E7EC"/>
</g>
<defs>
<clipPath id="clip0_2112_54374">
<rect width="124.001" height="28" fill="white"/>
</clipPath>
</defs>
</svg>
