<svg width="156" height="34" viewBox="0 0 156 34" fill="none" xmlns="http://www.w3.org/2000/svg">
<g clip-path="url(#clip0_2118_54325)">
<path d="M25.9687 33.9564L15.7653 33.7719C12.4616 33.7077 9.14977 33.8361 5.91099 33.1703C0.983828 32.1755 0.634787 27.298 0.269512 23.2066C-0.233757 17.4547 -0.0389432 11.5985 0.910773 5.89467C1.44651 2.6938 3.55699 0.784513 6.82012 0.575935C17.8352 -0.178154 28.9233 -0.08991 39.9141 0.263068C41.0748 0.295157 42.2437 0.471646 43.3883 0.672202C49.0379 1.65091 49.1758 7.17823 49.5411 11.8311C49.9064 16.5322 49.7522 21.2572 49.0541 25.9262C48.494 29.7929 47.4225 33.0339 42.9012 33.3467C37.2354 33.7559 31.6994 34.0848 26.0174 33.9805C26.0174 33.9564 25.9849 33.9564 25.9687 33.9564V33.9564ZM19.97 24.1693C24.2397 21.7466 28.4282 19.364 32.6735 16.9573C28.3957 14.5346 24.2154 12.152 19.97 9.74535V24.1693Z" fill="#8895AA"/>
<path d="M131.677 29.5602C131.482 30.3464 131.312 30.9641 131.141 31.6219H127.148V1.17725H131.807V12.4085C132.05 12.1036 132.172 11.9753 132.278 11.8389C133.073 10.7559 134.104 10.0499 135.435 9.77717C137.554 9.36803 139.364 10.2906 140.005 12.3042C140.419 13.5557 140.687 14.8954 140.72 16.203C140.784 19.5644 140.736 22.9177 140.614 26.2791C140.565 27.3059 140.249 28.3568 139.851 29.3195C138.544 32.4964 134.274 32.9777 132.156 30.226C132.026 30.0576 131.904 29.8731 131.677 29.5602V29.5602ZM131.904 21.1849V26.7524C131.904 27.6589 132.391 28.2124 133.308 28.421C134.21 28.6296 134.94 28.2846 135.305 27.4583C135.46 27.1134 135.614 26.7524 135.622 26.3914C135.711 22.9899 135.792 19.5885 135.817 16.179C135.817 15.5452 135.662 14.8874 135.468 14.2697C135.102 13.1546 134.096 12.8256 133.106 13.4755C132.359 13.9728 131.904 14.6788 131.904 15.6174V21.1849ZM119.241 10.2104H124.12V31.638H120.313C120.175 30.8277 120.037 29.9934 119.874 29.0147C119.615 29.3917 119.461 29.6324 119.298 29.8731C118.032 31.6781 116.238 32.2958 114.119 31.9669C112.309 31.6781 111.222 30.2982 110.978 28.0359C110.905 27.3621 110.872 26.6802 110.872 26.0063C110.856 20.9924 110.872 15.9624 110.872 10.9484V10.1943H115.808V11.0688C115.808 15.9142 115.792 20.7517 115.824 25.5972C115.824 26.2871 115.897 27.0011 116.019 27.691C116.157 28.397 116.676 28.6537 117.374 28.6055C118.503 28.5173 119.282 27.691 119.282 26.5839V11.157C119.241 10.8441 119.241 10.5553 119.241 10.2104V10.2104ZM85.6523 10.1943H90.5551V11.1008C90.5551 15.9223 90.5388 20.7356 90.5713 25.541C90.5713 26.2309 90.6362 26.9449 90.7824 27.6188C90.9691 28.413 91.4399 28.6697 92.2435 28.5654C93.3555 28.413 94.0292 27.6509 94.0374 26.5358V11.1891V10.2264H98.9158V31.638H95.1251C94.9871 30.8438 94.8491 30.0255 94.6705 28.9906C94.427 29.3516 94.289 29.5602 94.151 29.7768C92.8847 31.6139 91.1071 32.2878 88.9398 31.9589C87.2027 31.7021 86.1393 30.4346 85.8146 28.3568C85.7253 27.707 85.6604 27.0652 85.6604 26.4154C85.6442 21.209 85.6442 15.9784 85.6442 10.7719L85.6523 10.1943ZM83.1359 21.6341C83.1197 22.3562 83.071 23.0782 83.0304 23.8002C82.8437 25.9662 82.7544 29.0387 80.9849 30.6191C79.8566 31.6139 78.4279 31.9749 76.9506 32.023C76.2931 32.0391 75.6275 32.0391 74.97 31.9508C71.8611 31.4855 70.4162 30.1298 69.8967 26.7524C69.3042 22.8535 69.2555 18.8905 69.9617 14.9917C70.6922 10.9564 73.2086 9.52847 77.1211 9.79321C80.7738 10.0499 82.4054 12.4165 82.8356 15.7859C83.071 17.7193 83.1846 19.6767 83.1359 21.6341V21.6341ZM78.1682 20.8961C78.1682 19.5243 78.2007 18.1444 78.152 16.7726C78.1195 15.9784 78.014 15.1762 77.8435 14.39C77.6487 13.4835 77.0642 13.0503 76.3337 13.0663C75.6194 13.0824 75.1161 13.5156 74.8564 14.3579C74.7671 14.6708 74.6697 14.9917 74.6697 15.3045C74.6697 17.4545 74.6534 19.6125 74.6372 21.7625C74.621 23.7681 74.3612 25.8699 75.0025 27.7873C75.1973 28.3729 75.7006 28.6938 76.3581 28.6938C76.9993 28.6938 77.4214 28.3809 77.6568 27.8193C77.8435 27.3861 78.0058 26.9128 78.0058 26.4475C78.0627 24.6024 78.1682 22.7492 78.1682 20.8961ZM62.7373 16.8609C63.1676 14.7831 63.5734 12.7534 64.0199 10.7158C64.58 8.12457 65.205 5.53336 65.757 2.93413C65.895 2.30037 66.1547 2.14795 66.7635 2.16399C68.0704 2.21212 69.4016 2.18004 70.7978 2.18004C70.3432 3.83263 69.8967 5.405 69.4584 6.95331C68.0704 11.8148 66.6823 16.6924 65.3105 21.57C65.205 21.947 65.1563 22.3561 65.1563 22.7573C65.14 25.4207 65.1563 28.0761 65.1563 30.7395V31.6059H60.3915C60.3752 31.3652 60.3428 31.1245 60.3428 30.8839C60.3428 29.3757 60.221 27.8595 60.359 26.3673C60.708 22.7813 59.5554 19.4842 58.6219 16.1469C57.3881 11.7346 56.138 7.30629 54.9042 2.89402C54.8393 2.68544 54.8149 2.46082 54.75 2.2041H59.6122C60.635 7.07365 61.6659 11.9432 62.7373 16.8609ZM155.964 22.4524H147.749C147.838 24.0809 147.871 25.6293 148.041 27.1615C148.163 28.2285 148.756 28.6858 149.689 28.6938C150.663 28.7098 151.231 28.2285 151.459 27.1695C151.532 26.8246 151.58 26.4796 151.613 26.1266C151.645 25.8138 151.662 25.4768 151.686 25.0276C153.074 25.0998 154.43 25.18 155.769 25.2362C156.548 27.5225 155.144 30.4587 152.782 31.3652C150.923 32.0872 149.015 32.0872 147.116 31.5337C145.712 31.1245 144.664 30.2421 144.194 28.8863C143.755 27.6188 143.341 26.2951 143.252 24.9714C143.009 21.7063 142.919 18.4092 143.423 15.1361C143.512 14.5906 143.666 14.0691 143.837 13.5396C144.518 11.3576 146.004 10.0178 148.301 9.79321C149.551 9.67287 150.842 9.72101 152.076 9.92959C154.072 10.2745 155.136 11.6945 155.598 13.5557C155.809 14.4301 155.964 15.3286 155.996 16.2191C156.004 18.2648 155.964 20.2944 155.964 22.4524ZM151.296 19.6366C151.296 18.0241 151.312 16.5079 151.28 14.9836C151.28 14.6226 151.142 14.2456 151.004 13.9006C150.728 13.2268 150.152 13.0422 149.462 13.0422C148.772 13.0422 148.333 13.3872 148.163 14.0049C147.644 15.8581 147.814 17.7513 147.83 19.6526C149.072 19.6366 150.2 19.6366 151.296 19.6366V19.6366Z" fill="#8895AA"/>
<path d="M102.685 6.11139H97.8555V2.24463H112.272V6.08732H107.474V31.6063H102.693L102.685 6.11139Z" fill="#8895AA"/>
</g>
<defs>
<clipPath id="clip0_2118_54325">
<rect width="155.997" height="34" fill="white"/>
</clipPath>
</defs>
</svg>
